<svg width="285" height="220" viewBox="0 0 285 220" fill="none" xmlns="http://www.w3.org/2000/svg">
<g filter="url(#filter0_d_10_182)">
<path d="M30.5946 189.55C24.1779 189.55 19.2829 187.973 15.9096 184.82C12.5363 181.667 10.8496 177.212 10.8496 171.455C10.8496 165.515 12.4996 160.968 15.7996 157.815C19.0996 154.625 24.0129 153.03 30.5396 153.03C32.7396 153.03 34.7013 153.195 36.4246 153.525C38.1479 153.855 39.7979 154.313 41.3746 154.9V163.92C38.2213 162.527 34.8479 161.83 31.2546 161.83C27.9179 161.83 25.4429 162.6 23.8296 164.14C22.2163 165.643 21.4096 168.082 21.4096 171.455C21.4096 174.755 22.2529 177.138 23.9396 178.605C25.6629 180.035 28.1379 180.75 31.3646 180.75C33.1246 180.75 34.8296 180.585 36.4796 180.255C38.1663 179.925 39.8346 179.412 41.4846 178.715V187.79C39.9079 188.34 38.2396 188.762 36.4796 189.055C34.7563 189.385 32.7946 189.55 30.5946 189.55ZM59.4928 189.55C54.2861 189.55 50.4361 188.395 47.9428 186.085C45.4861 183.775 44.2578 180.402 44.2578 175.965C44.2578 171.565 45.5045 168.21 47.9978 165.9C50.4911 163.553 54.3228 162.38 59.4928 162.38C64.6995 162.38 68.5495 163.553 71.0428 165.9C73.5728 168.21 74.8378 171.565 74.8378 175.965C74.8378 180.402 73.5911 183.775 71.0978 186.085C68.6045 188.395 64.7361 189.55 59.4928 189.55ZM59.4928 182.015C61.1795 182.015 62.3895 181.538 63.1228 180.585C63.8928 179.632 64.2778 178.092 64.2778 175.965C64.2778 173.875 63.8928 172.353 63.1228 171.4C62.3895 170.41 61.1795 169.915 59.4928 169.915C57.8428 169.915 56.6511 170.41 55.9178 171.4C55.1845 172.353 54.8178 173.875 54.8178 175.965C54.8178 178.092 55.1845 179.632 55.9178 180.585C56.6511 181.538 57.8428 182.015 59.4928 182.015ZM88.6188 189.55C86.3821 189.55 84.2738 189.385 82.2938 189.055C80.3504 188.762 78.8104 188.377 77.6738 187.9V180.475C78.9571 181.062 80.4788 181.52 82.2388 181.85C84.0354 182.18 85.5571 182.345 86.8038 182.345C88.1238 182.345 89.1138 182.308 89.7738 182.235C90.4704 182.162 90.8188 181.85 90.8188 181.3C90.8188 180.677 90.2138 180.2 89.0038 179.87C87.7938 179.54 86.2721 179.063 84.4388 178.44C82.0554 177.597 80.2771 176.607 79.1038 175.47C77.9304 174.333 77.3438 172.683 77.3438 170.52C77.3438 167.917 78.3704 165.918 80.4238 164.525C82.4771 163.095 85.7038 162.38 90.1037 162.38C91.7904 162.38 93.5321 162.508 95.3288 162.765C97.1254 163.022 98.5371 163.315 99.5638 163.645V170.905C98.4638 170.428 97.2538 170.08 95.9338 169.86C94.6504 169.64 93.4771 169.53 92.4138 169.53C91.2404 169.53 90.1954 169.585 89.2788 169.695C88.3621 169.805 87.9038 170.117 87.9038 170.63C87.9038 171.217 88.4171 171.638 89.4438 171.895C90.5071 172.152 91.9188 172.555 93.6788 173.105C95.6588 173.692 97.1988 174.333 98.2988 175.03C99.4354 175.727 100.224 176.57 100.664 177.56C101.14 178.55 101.379 179.778 101.379 181.245C101.379 183.885 100.297 185.938 98.1338 187.405C96.0071 188.835 92.8354 189.55 88.6188 189.55ZM115.605 189.55C112.122 189.55 109.592 188.67 108.015 186.91C106.438 185.15 105.65 182.767 105.65 179.76V170.575H102.24V162.93H105.65V157.595L115.99 155.12V162.93H121.985L121.6 170.575H115.99V178.99C115.99 180.09 116.265 180.878 116.815 181.355C117.365 181.795 118.208 182.015 119.345 182.015C120.408 182.015 121.49 181.832 122.59 181.465V188.34C120.647 189.147 118.318 189.55 115.605 189.55ZM133.473 189.55C131.823 189.55 130.283 189.257 128.853 188.67C127.46 188.083 126.342 187.167 125.498 185.92C124.655 184.673 124.233 183.097 124.233 181.19C124.233 178.44 125.15 176.313 126.983 174.81C128.817 173.27 131.585 172.5 135.288 172.5H142.053V172.005C142.053 170.978 141.632 170.227 140.788 169.75C139.945 169.273 138.46 169.035 136.333 169.035C133.327 169.035 130.357 169.493 127.423 170.41V164.195C128.743 163.682 130.393 163.26 132.373 162.93C134.353 162.563 136.37 162.38 138.423 162.38C142.567 162.38 145.848 163.223 148.268 164.91C150.688 166.597 151.898 169.273 151.898 172.94V189H142.878L142.383 186.91C141.467 187.717 140.275 188.358 138.808 188.835C137.378 189.312 135.6 189.55 133.473 189.55ZM136.993 183.5C138.167 183.5 139.157 183.298 139.963 182.895C140.807 182.492 141.503 181.997 142.053 181.41V178.165H137.048C134.775 178.165 133.638 179.063 133.638 180.86C133.638 182.62 134.757 183.5 136.993 183.5ZM167.872 189V153.58H186.297C189.194 153.58 191.559 154.112 193.392 155.175C195.262 156.238 196.656 157.723 197.572 159.63C198.489 161.5 198.947 163.682 198.947 166.175C198.947 168.558 198.342 170.667 197.132 172.5C195.959 174.297 194.382 175.672 192.402 176.625C192.806 176.955 193.154 177.358 193.447 177.835C193.741 178.275 194.071 178.898 194.437 179.705L198.507 189H187.727L183.987 180.475C183.694 179.815 183.327 179.357 182.887 179.1C182.484 178.807 181.897 178.66 181.127 178.66H178.212V189H167.872ZM178.212 170.74H183.657C185.161 170.74 186.316 170.355 187.122 169.585C187.966 168.778 188.387 167.642 188.387 166.175C188.387 163.058 186.921 161.5 183.987 161.5H178.212V170.74ZM203.794 159.465V151.985H214.959V159.465H203.794ZM204.619 189V170.465H200.824L201.704 162.93H214.959V189H204.619ZM234.163 189.55C229.433 189.55 225.693 188.432 222.943 186.195C220.193 183.922 218.818 180.512 218.818 175.965C218.818 172.885 219.46 170.337 220.743 168.32C222.027 166.303 223.823 164.818 226.133 163.865C228.443 162.875 231.138 162.38 234.218 162.38C236.162 162.38 237.903 162.527 239.443 162.82C240.983 163.077 242.45 163.535 243.843 164.195V171.455C241.68 170.428 239.223 169.915 236.473 169.915C234.127 169.915 232.348 170.355 231.138 171.235C229.965 172.115 229.378 173.692 229.378 175.965C229.378 178.092 229.947 179.632 231.083 180.585C232.22 181.538 234.017 182.015 236.473 182.015C237.793 182.015 239.077 181.868 240.323 181.575C241.57 181.245 242.762 180.787 243.898 180.2V187.79C242.505 188.413 241.002 188.853 239.388 189.11C237.812 189.403 236.07 189.55 234.163 189.55ZM255.881 189.55C254.231 189.55 252.691 189.257 251.261 188.67C249.867 188.083 248.749 187.167 247.906 185.92C247.062 184.673 246.641 183.097 246.641 181.19C246.641 178.44 247.557 176.313 249.391 174.81C251.224 173.27 253.992 172.5 257.696 172.5H264.461V172.005C264.461 170.978 264.039 170.227 263.196 169.75C262.352 169.273 260.867 169.035 258.741 169.035C255.734 169.035 252.764 169.493 249.831 170.41V164.195C251.151 163.682 252.801 163.26 254.781 162.93C256.761 162.563 258.777 162.38 260.831 162.38C264.974 162.38 268.256 163.223 270.676 164.91C273.096 166.597 274.306 169.273 274.306 172.94V189H265.286L264.791 186.91C263.874 187.717 262.682 188.358 261.216 188.835C259.786 189.312 258.007 189.55 255.881 189.55ZM259.401 183.5C260.574 183.5 261.564 183.298 262.371 182.895C263.214 182.492 263.911 181.997 264.461 181.41V178.165H259.456C257.182 178.165 256.046 179.063 256.046 180.86C256.046 182.62 257.164 183.5 259.401 183.5Z" fill="white"/>
</g>
<g filter="url(#filter1_d_10_182)">
<path d="M54.2616 139V138.88L58.9616 123.4H64.2216L68.9416 138.88V139H65.5016L61.7216 126H61.2416L57.4216 139H54.2616ZM58.1616 135.1L58.8616 132.58H64.1016L64.8016 135.1H58.1616ZM70.6216 139V123.4H76.5416L79.4416 136.36H80.1616L83.0616 123.4H88.9816V139H85.8616V126.16H85.3416L82.5016 139H76.9416L74.1016 126.16H73.5816V139H70.6216ZM90.66 139V138.88L95.36 123.4H100.62L105.34 138.88V139H101.9L98.12 126H97.64L93.82 139H90.66ZM94.56 135.1L95.26 132.58H100.5L101.2 135.1H94.56ZM107.02 139V123.4H113.14C115.087 123.4 116.493 123.753 117.36 124.46C118.227 125.167 118.66 126.12 118.66 127.32C118.66 128.093 118.473 128.72 118.1 129.2C117.727 129.68 117.16 130.033 116.4 130.26V130.74C117.413 130.967 118.18 131.367 118.7 131.94C119.233 132.513 119.5 133.347 119.5 134.44C119.5 135.813 119.047 136.92 118.14 137.76C117.247 138.587 115.767 139 113.7 139H107.02ZM110.22 136.6H113.26C114.273 136.6 115.007 136.4 115.46 136C115.913 135.587 116.14 135.027 116.14 134.32C116.14 133.533 115.887 132.96 115.38 132.6C114.873 132.227 114.167 132.04 113.26 132.04H110.22V136.6ZM110.22 129.68H112.9C113.66 129.68 114.26 129.527 114.7 129.22C115.153 128.9 115.38 128.407 115.38 127.74C115.38 126.447 114.553 125.8 112.9 125.8H110.22V129.68ZM121.622 139V123.4H124.982V136.36H131.502V139H121.622ZM133.622 139V123.4H144.262V126.04H136.942V129.48H142.582V131.92H136.942V136.36H144.382V139H133.622ZM151.622 139V123.4H161.902V126.04H154.942V129.58H160.222V132.02H154.942V139H151.622ZM170.102 139.28C168.448 139.28 167.068 138.953 165.962 138.3C164.868 137.633 164.048 136.693 163.502 135.48C162.968 134.267 162.702 132.84 162.702 131.2C162.702 129.547 162.968 128.12 163.502 126.92C164.048 125.707 164.868 124.773 165.962 124.12C167.068 123.453 168.448 123.12 170.102 123.12C171.768 123.12 173.148 123.453 174.242 124.12C175.335 124.773 176.148 125.707 176.682 126.92C177.228 128.12 177.502 129.547 177.502 131.2C177.502 132.84 177.228 134.267 176.682 135.48C176.148 136.693 175.335 137.633 174.242 138.3C173.148 138.953 171.768 139.28 170.102 139.28ZM170.102 136.76C171.448 136.76 172.435 136.28 173.062 135.32C173.702 134.347 174.022 132.973 174.022 131.2C174.022 129.413 173.702 128.04 173.062 127.08C172.435 126.12 171.448 125.64 170.102 125.64C168.755 125.64 167.762 126.12 167.122 127.08C166.495 128.04 166.182 129.413 166.182 131.2C166.182 132.973 166.495 134.347 167.122 135.32C167.762 136.28 168.755 136.76 170.102 136.76ZM179.629 139V123.4H186.249C187.583 123.4 188.663 123.593 189.489 123.98C190.329 124.353 190.943 124.873 191.329 125.54C191.729 126.193 191.929 126.953 191.929 127.82C191.929 128.807 191.669 129.66 191.149 130.38C190.629 131.1 189.863 131.613 188.849 131.92L192.349 138.88V139H188.789L185.609 132.4H182.949V139H179.629ZM182.949 129.96H185.769C186.636 129.96 187.309 129.813 187.789 129.52C188.283 129.227 188.529 128.7 188.529 127.94C188.529 127.167 188.283 126.64 187.789 126.36C187.296 126.067 186.623 125.92 185.769 125.92H182.949V129.96ZM194.231 139V123.4H204.871V126.04H197.551V129.48H203.191V131.92H197.551V136.36H204.991V139H194.231ZM212.768 139.3C211.554 139.3 210.528 139.14 209.688 138.82C208.861 138.487 208.188 138.053 207.668 137.52C207.161 136.987 206.781 136.407 206.528 135.78C206.288 135.14 206.148 134.513 206.108 133.9H209.228C209.254 134.38 209.401 134.84 209.668 135.28C209.934 135.72 210.334 136.08 210.868 136.36C211.401 136.64 212.068 136.78 212.868 136.78C213.734 136.78 214.374 136.607 214.788 136.26C215.214 135.9 215.428 135.433 215.428 134.86C215.428 134.313 215.241 133.867 214.868 133.52C214.508 133.173 214.028 132.9 213.428 132.7L211.168 131.94C210.448 131.7 209.754 131.407 209.088 131.06C208.434 130.7 207.894 130.233 207.468 129.66C207.041 129.073 206.828 128.327 206.828 127.42C206.828 126.487 207.061 125.7 207.528 125.06C208.008 124.42 208.661 123.933 209.488 123.6C210.328 123.267 211.288 123.1 212.368 123.1C213.754 123.1 214.848 123.333 215.648 123.8C216.448 124.267 217.028 124.86 217.388 125.58C217.761 126.287 217.988 127.027 218.068 127.8H214.948C214.921 127.427 214.814 127.073 214.628 126.74C214.454 126.393 214.174 126.113 213.788 125.9C213.401 125.687 212.881 125.58 212.228 125.58C211.494 125.58 210.948 125.733 210.588 126.04C210.241 126.347 210.068 126.733 210.068 127.2C210.068 127.707 210.248 128.113 210.608 128.42C210.981 128.727 211.474 128.987 212.088 129.2L214.348 129.96C215.081 130.2 215.774 130.5 216.428 130.86C217.081 131.22 217.614 131.7 218.028 132.3C218.454 132.887 218.668 133.66 218.668 134.62C218.668 136.073 218.148 137.22 217.108 138.06C216.081 138.887 214.634 139.3 212.768 139.3ZM223.314 139V126.04H218.694V123.4H231.294V126.04H226.674V139H223.314Z" fill="white"/>
</g>
<path d="M102 21.389L143.558 2M102 21.389V75.2611M102 21.389L143.558 41.7598M143.558 2L184 21.389M143.558 2V41.7598M143.558 96L102 75.2611M143.558 96L184 75.2611M143.558 96V55.9948M102 75.2611L143.558 55.9948M184 21.389V75.2611M184 21.389L143.558 41.7598M184 75.2611L143.558 55.9948M143.558 55.9948V41.7598" stroke="white" stroke-width="3.36594"/>
<path d="M62.6193 216.187C61.4904 216.187 60.5793 215.916 59.8859 215.373C59.2015 214.831 58.8593 214.098 58.8593 213.173C58.8593 212.569 59.0193 212.058 59.3393 211.64C59.6682 211.213 60.1659 210.893 60.8326 210.68V210.36C60.2993 210.156 59.9037 209.858 59.6459 209.467C59.3882 209.067 59.2593 208.618 59.2593 208.12C59.2593 207.578 59.4015 207.107 59.6859 206.707C59.9704 206.298 60.3615 205.982 60.8593 205.76C61.3659 205.529 61.9526 205.413 62.6193 205.413C63.6326 205.413 64.4459 205.662 65.0593 206.16C65.6815 206.649 65.9926 207.302 65.9926 208.12C65.9926 208.618 65.8637 209.067 65.6059 209.467C65.3482 209.858 64.9482 210.156 64.4059 210.36V210.68C65.0726 210.893 65.5659 211.213 65.8859 211.64C66.2148 212.058 66.3793 212.573 66.3793 213.187C66.3793 213.791 66.2237 214.32 65.9126 214.773C65.6104 215.218 65.1793 215.564 64.6193 215.813C64.0593 216.062 63.3926 216.187 62.6193 216.187ZM62.6193 215.04C63.3482 215.04 63.9126 214.853 64.3126 214.48C64.7126 214.107 64.9126 213.636 64.9126 213.067C64.9126 212.489 64.7126 212.013 64.3126 211.64C63.9126 211.267 63.3482 211.08 62.6193 211.08C61.8993 211.08 61.3348 211.267 60.9259 211.64C60.5259 212.013 60.3259 212.489 60.3259 213.067C60.3259 213.636 60.5259 214.107 60.9259 214.48C61.3348 214.853 61.8993 215.04 62.6193 215.04ZM62.6193 209.96C63.2237 209.96 63.6948 209.8 64.0326 209.48C64.3793 209.16 64.5526 208.751 64.5526 208.253C64.5526 207.756 64.3793 207.351 64.0326 207.04C63.6948 206.72 63.2237 206.56 62.6193 206.56C62.0237 206.56 61.5526 206.72 61.2059 207.04C60.8682 207.351 60.6993 207.756 60.6993 208.253C60.6993 208.751 60.8682 209.16 61.2059 209.48C61.5526 209.8 62.0237 209.96 62.6193 209.96ZM70.5484 210.48C70.0951 210.48 69.6818 210.369 69.3084 210.147C68.9351 209.916 68.6329 209.613 68.4018 209.24C68.1795 208.867 68.0684 208.453 68.0684 208C68.0684 207.547 68.1795 207.133 68.4018 206.76C68.6329 206.378 68.9351 206.076 69.3084 205.853C69.6818 205.631 70.0951 205.52 70.5484 205.52C71.0018 205.52 71.4151 205.631 71.7884 205.853C72.1707 206.076 72.4729 206.378 72.6951 206.76C72.9173 207.133 73.0284 207.547 73.0284 208C73.0284 208.453 72.9173 208.867 72.6951 209.24C72.4729 209.613 72.1707 209.916 71.7884 210.147C71.4151 210.369 71.0018 210.48 70.5484 210.48ZM70.5484 209.387C70.9218 209.387 71.2418 209.258 71.5084 209C71.7751 208.742 71.9084 208.409 71.9084 208C71.9084 207.582 71.7751 207.249 71.5084 207C71.2418 206.742 70.9218 206.613 70.5484 206.613C70.1751 206.613 69.8551 206.742 69.5884 207C69.3218 207.249 69.1884 207.582 69.1884 208C69.1884 208.409 69.3218 208.742 69.5884 209C69.8551 209.258 70.1751 209.387 70.5484 209.387ZM74.6653 213.4V212L79.012 205.6H80.612V205.68L77.212 210.68C77.0786 210.876 76.932 211.076 76.772 211.28C76.612 211.476 76.4342 211.676 76.2386 211.88V212.2H82.292V213.4H74.6653ZM79.3853 216V212.8H79.3986V210.4H80.7586V212.8H80.772V216H79.3853ZM84.0745 216V214.667C84.8478 214.053 85.4834 213.538 85.9811 213.12C86.4878 212.702 86.9323 212.311 87.3145 211.947C88.0078 211.28 88.5145 210.684 88.8345 210.16C89.1634 209.627 89.3278 209.071 89.3278 208.493C89.3278 207.916 89.1678 207.449 88.8478 207.093C88.5278 206.738 88.0523 206.56 87.4211 206.56C86.7278 206.56 86.2211 206.778 85.9011 207.213C85.5811 207.64 85.4211 208.169 85.4211 208.8H84.0745C84.0745 208.151 84.2034 207.573 84.4611 207.067C84.7278 206.551 85.1145 206.147 85.6211 205.853C86.1367 205.56 86.7589 205.413 87.4878 205.413C88.4834 205.413 89.2789 205.676 89.8745 206.2C90.47 206.724 90.7678 207.436 90.7678 208.333C90.7678 209.169 90.5323 209.947 90.0611 210.667C89.5989 211.378 89.0078 212.062 88.2878 212.72C88.0123 212.978 87.6745 213.258 87.2745 213.56C86.8834 213.862 86.4256 214.169 85.9011 214.48V214.747H91.0078V216H84.0745ZM93.5503 209.2L93.3503 206V205.6H94.7903V206L94.5903 209.2H93.5503ZM97.137 216V214.667C97.9103 214.053 98.5459 213.538 99.0436 213.12C99.5503 212.702 99.9948 212.311 100.377 211.947C101.07 211.28 101.577 210.684 101.897 210.16C102.226 209.627 102.39 209.071 102.39 208.493C102.39 207.916 102.23 207.449 101.91 207.093C101.59 206.738 101.115 206.56 100.484 206.56C99.7903 206.56 99.2836 206.778 98.9636 207.213C98.6436 207.64 98.4836 208.169 98.4836 208.8H97.137C97.137 208.151 97.2659 207.573 97.5236 207.067C97.7903 206.551 98.177 206.147 98.6836 205.853C99.1992 205.56 99.8214 205.413 100.55 205.413C101.546 205.413 102.341 205.676 102.937 206.2C103.533 206.724 103.83 207.436 103.83 208.333C103.83 209.169 103.595 209.947 103.124 210.667C102.661 211.378 102.07 212.062 101.35 212.72C101.075 212.978 100.737 213.258 100.337 213.56C99.9459 213.862 99.4881 214.169 98.9636 214.48V214.747H104.07V216H97.137ZM106.199 216V214.667C106.973 214.053 107.608 213.538 108.106 213.12C108.613 212.702 109.057 212.311 109.439 211.947C110.133 211.28 110.639 210.684 110.959 210.16C111.288 209.627 111.453 209.071 111.453 208.493C111.453 207.916 111.293 207.449 110.973 207.093C110.653 206.738 110.177 206.56 109.546 206.56C108.853 206.56 108.346 206.778 108.026 207.213C107.706 207.64 107.546 208.169 107.546 208.8H106.199C106.199 208.151 106.328 207.573 106.586 207.067C106.853 206.551 107.239 206.147 107.746 205.853C108.262 205.56 108.884 205.413 109.613 205.413C110.608 205.413 111.404 205.676 111.999 206.2C112.595 206.724 112.893 207.436 112.893 208.333C112.893 209.169 112.657 209.947 112.186 210.667C111.724 211.378 111.133 212.062 110.413 212.72C110.137 212.978 109.799 213.258 109.399 213.56C109.008 213.862 108.551 214.169 108.026 214.48V214.747H113.133V216H106.199ZM115.675 209.2L115.475 206V205.6H116.915V206L116.715 209.2H115.675ZM118.475 209.2L118.275 206V205.6H119.715V206L119.515 209.2H118.475ZM122.192 216V205.6H124.912L129.046 214.813H129.366V205.6H130.726V216H128.006L123.872 206.787H123.552V216H122.192ZM132.33 218V217.92C132.525 217.591 132.703 217.271 132.863 216.96C133.023 216.658 133.165 216.36 133.29 216.067C133.094 216.013 132.925 215.916 132.783 215.773C132.641 215.622 132.57 215.418 132.57 215.16C132.57 214.893 132.65 214.68 132.81 214.52C132.979 214.351 133.219 214.267 133.53 214.267C133.841 214.267 134.076 214.36 134.236 214.547C134.405 214.733 134.49 214.982 134.49 215.293C134.49 215.631 134.401 216.018 134.223 216.453C134.045 216.898 133.787 217.413 133.45 218H132.33ZM146.072 216.187C144.944 216.187 144.032 215.916 143.339 215.373C142.655 214.831 142.312 214.098 142.312 213.173C142.312 212.569 142.472 212.058 142.792 211.64C143.121 211.213 143.619 210.893 144.286 210.68V210.36C143.752 210.156 143.357 209.858 143.099 209.467C142.841 209.067 142.712 208.618 142.712 208.12C142.712 207.578 142.855 207.107 143.139 206.707C143.424 206.298 143.815 205.982 144.312 205.76C144.819 205.529 145.406 205.413 146.072 205.413C147.086 205.413 147.899 205.662 148.512 206.16C149.135 206.649 149.446 207.302 149.446 208.12C149.446 208.618 149.317 209.067 149.059 209.467C148.801 209.858 148.401 210.156 147.859 210.36V210.68C148.526 210.893 149.019 211.213 149.339 211.64C149.668 212.058 149.832 212.573 149.832 213.187C149.832 213.791 149.677 214.32 149.366 214.773C149.064 215.218 148.632 215.564 148.072 215.813C147.512 216.062 146.846 216.187 146.072 216.187ZM146.072 215.04C146.801 215.04 147.366 214.853 147.766 214.48C148.166 214.107 148.366 213.636 148.366 213.067C148.366 212.489 148.166 212.013 147.766 211.64C147.366 211.267 146.801 211.08 146.072 211.08C145.352 211.08 144.788 211.267 144.379 211.64C143.979 212.013 143.779 212.489 143.779 213.067C143.779 213.636 143.979 214.107 144.379 214.48C144.788 214.853 145.352 215.04 146.072 215.04ZM146.072 209.96C146.677 209.96 147.148 209.8 147.486 209.48C147.832 209.16 148.006 208.751 148.006 208.253C148.006 207.756 147.832 207.351 147.486 207.04C147.148 206.72 146.677 206.56 146.072 206.56C145.477 206.56 145.006 206.72 144.659 207.04C144.321 207.351 144.152 207.756 144.152 208.253C144.152 208.751 144.321 209.16 144.659 209.48C145.006 209.8 145.477 209.96 146.072 209.96ZM155.188 216.173C154.539 216.173 153.979 216.071 153.508 215.867C153.046 215.653 152.664 215.378 152.362 215.04C152.059 214.702 151.833 214.338 151.682 213.947C151.53 213.556 151.446 213.173 151.428 212.8H152.868C152.939 213.422 153.184 213.942 153.602 214.36C154.019 214.769 154.579 214.973 155.282 214.973C155.966 214.973 156.477 214.782 156.815 214.4C157.153 214.009 157.322 213.529 157.322 212.96C157.322 212.267 157.082 211.72 156.602 211.32C156.122 210.92 155.455 210.72 154.602 210.72H154.228V209.52L155.628 208C155.788 207.822 155.939 207.667 156.082 207.533C156.224 207.4 156.379 207.262 156.548 207.12V206.8H151.988V205.6H158.362V206.88L155.828 209.467V209.787C156.833 209.973 157.57 210.333 158.042 210.867C158.522 211.4 158.762 212.067 158.762 212.867C158.762 213.516 158.615 214.089 158.322 214.587C158.028 215.084 157.615 215.476 157.082 215.76C156.548 216.036 155.917 216.173 155.188 216.173ZM163.064 210.48C162.611 210.48 162.197 210.369 161.824 210.147C161.451 209.916 161.149 209.613 160.917 209.24C160.695 208.867 160.584 208.453 160.584 208C160.584 207.547 160.695 207.133 160.917 206.76C161.149 206.378 161.451 206.076 161.824 205.853C162.197 205.631 162.611 205.52 163.064 205.52C163.517 205.52 163.931 205.631 164.304 205.853C164.686 206.076 164.989 206.378 165.211 206.76C165.433 207.133 165.544 207.547 165.544 208C165.544 208.453 165.433 208.867 165.211 209.24C164.989 209.613 164.686 209.916 164.304 210.147C163.931 210.369 163.517 210.48 163.064 210.48ZM163.064 209.387C163.437 209.387 163.757 209.258 164.024 209C164.291 208.742 164.424 208.409 164.424 208C164.424 207.582 164.291 207.249 164.024 207C163.757 206.742 163.437 206.613 163.064 206.613C162.691 206.613 162.371 206.742 162.104 207C161.837 207.249 161.704 207.582 161.704 208C161.704 208.409 161.837 208.742 162.104 209C162.371 209.258 162.691 209.387 163.064 209.387ZM167.874 216V214.853H170.354V208.667H168.061V207.627L168.754 207.6C169.092 207.582 169.39 207.533 169.648 207.453C169.905 207.364 170.119 207.182 170.288 206.907C170.465 206.622 170.603 206.187 170.701 205.6H171.794V214.853H174.114V216H167.874ZM180.057 216.187C178.741 216.187 177.763 215.711 177.123 214.76C176.483 213.809 176.163 212.489 176.163 210.8C176.163 209.111 176.483 207.791 177.123 206.84C177.763 205.889 178.741 205.413 180.057 205.413C181.381 205.413 182.359 205.889 182.99 206.84C183.63 207.791 183.95 209.111 183.95 210.8C183.95 212.489 183.63 213.809 182.99 214.76C182.359 215.711 181.381 216.187 180.057 216.187ZM180.057 214.987C180.901 214.987 181.51 214.64 181.883 213.947C182.266 213.244 182.457 212.196 182.457 210.8C182.457 209.404 182.266 208.36 181.883 207.667C181.51 206.964 180.901 206.613 180.057 206.613C179.221 206.613 178.612 206.964 178.23 207.667C177.848 208.36 177.657 209.404 177.657 210.8C177.657 212.196 177.848 213.244 178.23 213.947C178.612 214.64 179.221 214.987 180.057 214.987ZM186.066 209.2L185.866 206V205.6H187.306V206L187.106 209.2H186.066ZM193.106 216.173C192.484 216.173 191.95 216.084 191.506 215.907C191.061 215.72 190.693 215.48 190.399 215.187C190.115 214.893 189.897 214.587 189.746 214.267C189.604 213.938 189.519 213.627 189.493 213.333H190.933C190.968 213.547 191.066 213.782 191.226 214.04C191.395 214.298 191.639 214.52 191.959 214.707C192.279 214.884 192.679 214.973 193.159 214.973C193.879 214.973 194.417 214.742 194.773 214.28C195.128 213.809 195.306 213.236 195.306 212.56C195.306 211.849 195.11 211.284 194.719 210.867C194.328 210.44 193.79 210.227 193.106 210.227C192.75 210.227 192.444 210.284 192.186 210.4C191.928 210.516 191.715 210.658 191.546 210.827C191.386 210.996 191.257 211.164 191.159 211.333H189.786L190.373 205.6H196.186V206.853H191.493L191.159 210H191.479C191.675 209.769 191.924 209.56 192.226 209.373C192.528 209.178 192.968 209.08 193.546 209.08C194.195 209.08 194.759 209.222 195.239 209.507C195.719 209.791 196.088 210.191 196.346 210.707C196.613 211.213 196.746 211.809 196.746 212.493C196.746 213.204 196.599 213.84 196.306 214.4C196.013 214.951 195.59 215.387 195.039 215.707C194.497 216.018 193.853 216.173 193.106 216.173ZM198.368 213.4V212L202.715 205.6H204.315V205.68L200.915 210.68C200.782 210.876 200.635 211.076 200.475 211.28C200.315 211.476 200.137 211.676 199.942 211.88V212.2H205.995V213.4H198.368ZM203.088 216V212.8H203.102V210.4H204.462V212.8H204.475V216H203.088ZM208.191 209.2L207.991 206V205.6H209.431V206L209.231 209.2H208.191ZM210.991 209.2L210.791 206V205.6H212.231V206L212.031 209.2H210.991ZM215.934 216L213.948 205.68V205.6H215.414L217.148 214.88H217.468L219.481 205.6H222.014L224.054 214.88H224.374L226.081 205.6H227.468V205.68L225.508 216H222.908L220.868 206.733H220.548L218.521 216H215.934Z" fill="white"/>
<defs>
<filter id="filter0_d_10_182" x="0.849609" y="141.985" width="283.456" height="57.5651" filterUnits="userSpaceOnUse" color-interpolation-filters="sRGB">
<feFlood flood-opacity="0" result="BackgroundImageFix"/>
<feColorMatrix in="SourceAlpha" type="matrix" values="0 0 0 0 0 0 0 0 0 0 0 0 0 0 0 0 0 0 127 0" result="hardAlpha"/>
<feOffset/>
<feGaussianBlur stdDeviation="5"/>
<feComposite in2="hardAlpha" operator="out"/>
<feColorMatrix type="matrix" values="0 0 0 0 0 0 0 0 0 0 0 0 0 0 0 0 0 0 0.8 0"/>
<feBlend mode="normal" in2="BackgroundImageFix" result="effect1_dropShadow_10_182"/>
<feBlend mode="normal" in="SourceGraphic" in2="effect1_dropShadow_10_182" result="shape"/>
</filter>
<filter id="filter1_d_10_182" x="48.2615" y="117.1" width="189.032" height="28.2001" filterUnits="userSpaceOnUse" color-interpolation-filters="sRGB">
<feFlood flood-opacity="0" result="BackgroundImageFix"/>
<feColorMatrix in="SourceAlpha" type="matrix" values="0 0 0 0 0 0 0 0 0 0 0 0 0 0 0 0 0 0 127 0" result="hardAlpha"/>
<feOffset/>
<feGaussianBlur stdDeviation="3"/>
<feComposite in2="hardAlpha" operator="out"/>
<feColorMatrix type="matrix" values="0 0 0 0 0 0 0 0 0 0 0 0 0 0 0 0 0 0 1 0"/>
<feBlend mode="normal" in2="BackgroundImageFix" result="effect1_dropShadow_10_182"/>
<feBlend mode="normal" in="SourceGraphic" in2="effect1_dropShadow_10_182" result="shape"/>
</filter>
</defs>
</svg>
