<svg width="241" height="35" viewBox="0 0 241 35" fill="none" xmlns="http://www.w3.org/2000/svg">
<path fill-rule="evenodd" clip-rule="evenodd" d="M15.1375 0L15.338 0.0972784L29.6129 7.02268L29.8753 7.14998V7.44164V26.6837V26.9667L29.6242 27.0971L15.3492 34.5046L15.1376 34.6144L14.9248 34.507L0.255753 27.0994L0 26.9703V26.6837V7.44164V7.14654L0.266855 7.02055L14.9359 0.0951466L15.1375 0ZM0.931305 8.19239L14.6691 15.0065V19.5063L0.931305 25.9509V8.19239ZM1.5292 26.6992L14.6691 33.3345V20.535L1.5292 26.6992ZM15.6004 20.5436V33.325L28.3692 26.6991L15.6004 20.5436ZM28.944 25.9423L15.6004 19.5097V15.003L28.944 8.20164V25.9423ZM28.3641 7.45193L15.6004 1.2597V13.9577L28.3641 7.45193ZM14.6691 13.9669V1.25101L1.53445 7.45199L14.6691 13.9669ZM43.1777 26.729C44.5539 27.6344 46.2109 28.0871 48.1485 28.0871C49.8145 28.0871 51.0821 27.7974 51.9513 27.2179C52.8387 26.6384 53.4634 25.9865 53.8256 25.2622H54.4775V27.7068H57.7642V16.6515H47.6052V19.9382H53.5811C53.4906 21.405 53.0469 22.573 52.2501 23.4422C51.4533 24.2933 50.3216 24.7189 48.8547 24.7189C47.0982 24.7189 45.7672 24.0579 44.8618 22.736C43.9744 21.4141 43.5308 19.5308 43.5308 17.0861C43.5308 14.6957 43.9563 12.8486 44.8074 11.5448C45.6767 10.2229 46.9896 9.56191 48.7461 9.56191C50.068 9.56191 51.1183 9.90597 51.897 10.5941C52.6757 11.2822 53.1737 12.2782 53.391 13.582H57.7371C57.5379 12.1152 57.0852 10.8295 56.3789 9.72489C55.6727 8.60215 54.6948 7.72387 53.4453 7.09007C52.1958 6.45626 50.6475 6.13936 48.8004 6.13936C46.6636 6.13936 44.8618 6.58302 43.395 7.47035C41.9463 8.35768 40.8416 9.61623 40.0811 11.246C39.3386 12.8758 38.9674 14.8134 38.9674 17.0589C38.9674 19.2682 39.3296 21.2058 40.0539 22.8718C40.7783 24.5197 41.8195 25.8054 43.1777 26.729ZM61.1303 6.51964V27.7068H65.6394V18.743H69.2521L73.571 27.7068H78.4061V27.5439L73.6525 18.0911C75.0288 17.6746 76.07 16.9774 76.7763 15.9996C77.4825 15.0217 77.8356 13.8627 77.8356 12.5227C77.8356 11.3456 77.564 10.3134 77.0207 9.42609C76.4956 8.52066 75.6626 7.81442 74.5217 7.30737C73.399 6.78222 71.9322 6.51964 70.1213 6.51964H61.1303ZM69.4694 15.4291H65.6394V9.94219H69.4694C70.6284 9.94219 71.5428 10.1414 72.2129 10.5398C72.8829 10.9201 73.2179 11.6354 73.2179 12.6857C73.2179 13.7179 72.8829 14.4332 72.2129 14.8315C71.561 15.2299 70.6465 15.4291 69.4694 15.4291ZM80.9615 6.51964V27.7068H95.5752V24.1213H85.4706V18.0911H93.1306V14.7772H85.4706V10.1052H95.4123V6.51964H80.9615ZM98.8828 6.51964V27.7068H113.497V24.1213H103.392V18.0911H111.052V14.7772H103.392V10.1052H113.334V6.51964H98.8828ZM116.804 6.51964V27.7068H120.933V10.1052H121.558L128.104 27.7068H136.035V6.51964H131.907V24.1213H131.255L124.681 6.51964H116.804ZM147.971 25.2078C149.673 27.1455 152.063 28.1143 155.142 28.1143C157.007 28.1143 158.591 27.7702 159.895 27.0821C161.217 26.3759 162.249 25.407 162.992 24.1756C163.734 22.9443 164.169 21.5318 164.296 19.9382H159.759C159.633 21.3688 159.162 22.5187 158.347 23.3879C157.55 24.2571 156.473 24.6917 155.115 24.6917C153.539 24.6917 152.317 24.067 151.448 22.8175C150.596 21.5499 150.171 19.6575 150.171 17.1404C150.171 14.7138 150.587 12.8396 151.42 11.5177C152.253 10.1957 153.494 9.53475 155.142 9.53475C156.446 9.53475 157.505 9.9603 158.32 10.8114C159.135 11.6444 159.615 12.8034 159.759 14.2883H164.296C164.169 12.6947 163.734 11.2822 162.992 10.0508C162.249 8.81945 161.217 7.85969 159.895 7.17156C158.573 6.46532 156.98 6.1122 155.115 6.1122C152 6.1122 149.61 7.09007 147.944 9.04581C146.278 11.0016 145.445 13.6907 145.445 17.1132C145.445 20.572 146.287 23.2702 147.971 25.2078ZM168.194 25.7511C169.697 27.3266 171.979 28.1143 175.04 28.1143C178.118 28.1143 180.4 27.3266 181.885 25.7511C183.37 24.1575 184.112 21.8849 184.112 18.9332V6.51964H179.603V18.7974C179.603 20.5358 179.277 21.8939 178.625 22.8718C177.973 23.8497 176.796 24.3386 175.094 24.3386C173.41 24.3386 172.233 23.8497 171.563 22.8718C170.911 21.8939 170.585 20.5358 170.585 18.7974V6.51964H165.967V18.9332C165.967 21.8849 166.71 24.1575 168.194 25.7511ZM196.292 6.51964H187.98V27.7068H197.052C199.859 27.7068 201.869 27.1455 203.082 26.0227C204.314 24.8819 204.93 23.3789 204.93 21.5137C204.93 20.0287 204.567 18.897 203.843 18.1183C203.137 17.3396 202.096 16.7963 200.719 16.4885V15.8366C201.751 15.5287 202.521 15.0489 203.028 14.3969C203.535 13.745 203.789 12.8939 203.789 11.8436C203.789 10.2138 203.2 8.91905 202.023 7.95929C200.846 6.99952 198.936 6.51964 196.292 6.51964ZM196.455 24.4473H192.326V18.2541H196.455C197.686 18.2541 198.646 18.5076 199.334 19.0147C200.022 19.5036 200.366 20.2823 200.366 21.3507C200.366 22.3104 200.058 23.071 199.443 23.6324C198.827 24.1756 197.831 24.4473 196.455 24.4473ZM195.966 15.0488H192.326V9.77921H195.966C198.211 9.77921 199.334 10.6575 199.334 12.414C199.334 13.3195 199.026 13.9895 198.41 14.4241C197.813 14.8406 196.998 15.0488 195.966 15.0488ZM222.262 6.51964H207.811V27.7068H222.425V24.1213H212.32V18.0911H219.98V14.7772H212.32V10.1052H222.262V6.51964ZM228.804 27.4624C229.945 27.897 231.339 28.1143 232.987 28.1143C235.522 28.1143 237.487 27.5529 238.881 26.4302C240.294 25.2893 241 23.732 241 21.7581C241 20.4543 240.71 19.404 240.131 18.6072C239.569 17.7923 238.845 17.1404 237.958 16.6515C237.07 16.1625 236.129 15.7551 235.133 15.4291L232.063 14.3969C231.23 14.1072 230.56 13.7541 230.053 13.3376C229.564 12.9211 229.32 12.3688 229.32 11.6806C229.32 11.0468 229.555 10.5217 230.026 10.1052C230.515 9.68867 231.258 9.48042 232.253 9.48042C233.141 9.48042 233.847 9.62529 234.372 9.91503C234.897 10.2048 235.278 10.5851 235.513 11.0559C235.767 11.5086 235.911 11.9885 235.948 12.4955H240.185C240.076 11.4452 239.769 10.4402 239.262 9.48042C238.773 8.50255 237.985 7.69671 236.898 7.06291C235.812 6.4291 234.327 6.1122 232.444 6.1122C230.977 6.1122 229.673 6.33856 228.532 6.79127C227.409 7.24399 226.522 7.90496 225.87 8.77418C225.236 9.6434 224.919 10.7118 224.919 11.9794C224.919 13.2108 225.209 14.2249 225.789 15.0217C226.368 15.8004 227.102 16.4342 227.989 16.9231C228.894 17.3939 229.836 17.7923 230.814 18.1183L233.883 19.1505C234.698 19.4221 235.35 19.7933 235.839 20.2642C236.346 20.735 236.6 21.3416 236.6 22.0841C236.6 22.8628 236.31 23.4966 235.73 23.9855C235.169 24.4563 234.3 24.6917 233.123 24.6917C232.036 24.6917 231.131 24.5016 230.406 24.1213C229.682 23.741 229.139 23.2521 228.777 22.6545C228.414 22.0569 228.215 21.4322 228.179 20.7803H223.942C223.996 21.6133 224.186 22.4644 224.512 23.3336C224.856 24.1847 225.372 24.9724 226.06 25.6968C226.767 26.4211 227.681 27.0097 228.804 27.4624Z" fill="black"/>
</svg>
