<svg width="284" height="54" viewBox="0 0 284 54" fill="none" xmlns="http://www.w3.org/2000/svg">
<path fill-rule="evenodd" clip-rule="evenodd" d="M17.8383 0L18.0746 0.114635L34.8966 8.27569L35.2058 8.42571V8.7694V31.4447V31.7782L34.9098 31.9318L18.0878 40.661L17.8385 40.7904L17.5877 40.6638L0.301385 31.9346L0 31.7824V31.4447V8.7694V8.42164L0.314468 8.27318L17.6008 0.112123L17.8383 0ZM1.09747 9.65411L17.2864 17.684V22.9866L1.09747 30.5812V9.65411ZM1.80205 31.4629L17.2864 39.2821V24.1989L1.80205 31.4629ZM18.3838 24.209V39.271L33.4309 31.4628L18.3838 24.209ZM34.1083 30.571L18.3838 22.9907V17.6799L34.1083 9.665V30.571ZM33.4249 8.78153L18.3838 1.48446V16.4481L33.4249 8.78153ZM17.2864 16.459V1.47422L1.80823 8.78159L17.2864 16.459ZM50.8816 31.498C52.5034 32.565 54.456 33.0985 56.7393 33.0985C58.7026 33.0985 60.1964 32.7571 61.2207 32.0742C62.2663 31.3913 63.0025 30.6231 63.4293 29.7695H64.1976V32.6504H68.0707V19.6225H56.0991V23.4956H63.1412C63.0345 25.2242 62.5117 26.6006 61.5728 27.6249C60.6338 28.6278 59.3001 29.1293 57.5716 29.1293C55.5016 29.1293 53.9331 28.3504 52.8662 26.7926C51.8205 25.2348 51.2977 23.0155 51.2977 20.1346C51.2977 17.3178 51.7992 15.1411 52.8021 13.6047C53.8264 12.0469 55.3736 11.268 57.4435 11.268C59.0013 11.268 60.239 11.6734 61.1566 12.4843C62.0743 13.2952 62.6611 14.4689 62.9172 16.0054H68.0387C67.804 14.2769 67.2705 12.7618 66.4382 11.46C65.606 10.137 64.4536 9.10199 62.9812 8.3551C61.5087 7.60821 59.6842 7.23476 57.5075 7.23476C54.9895 7.23476 52.8662 7.75759 51.1376 8.80324C49.4305 9.84888 48.1287 11.332 47.2325 13.2526C46.3575 15.1731 45.9201 17.4565 45.9201 20.1026C45.9201 22.7061 46.3469 24.9894 47.2005 26.9527C48.054 28.8946 49.2811 30.4097 50.8816 31.498ZM72.0374 7.6829V32.6504H77.351V22.0872H81.6083L86.6978 32.6504H92.3955V32.4583L86.7938 21.319C88.4157 20.8282 89.6427 20.0066 90.4749 18.8543C91.3072 17.7019 91.7233 16.3362 91.7233 14.757C91.7233 13.3699 91.4032 12.1536 90.763 11.1079C90.1442 10.0409 89.1625 9.20869 87.8181 8.61118C86.4951 7.99233 84.7666 7.6829 82.6326 7.6829H72.0374ZM81.8644 18.1821H77.351V11.7161H81.8644C83.2301 11.7161 84.3077 11.9508 85.0973 12.4203C85.8869 12.8685 86.2817 13.7114 86.2817 14.9491C86.2817 16.1654 85.8869 17.0084 85.0973 17.4778C84.3291 17.9473 83.2514 18.1821 81.8644 18.1821ZM95.4069 7.6829V32.6504H112.628V28.4251H100.721V21.319H109.747V17.4138H100.721V11.9082H112.436V7.6829H95.4069ZM116.526 7.6829V32.6504H133.747V28.4251H121.839V21.319H130.866V17.4138H121.839V11.9082H133.555V7.6829H116.526ZM137.645 7.6829V32.6504H142.51V11.9082H143.246L150.961 32.6504H160.307V7.6829H155.442V28.4251H154.674L146.927 7.6829H137.645ZM174.372 29.7055C176.378 31.9889 179.195 33.1305 182.823 33.1305C185.021 33.1305 186.888 32.7251 188.424 31.9142C189.982 31.0819 191.198 29.9402 192.073 28.4891C192.948 27.038 193.46 25.3735 193.61 23.4956H188.264C188.115 25.1815 187.56 26.5366 186.6 27.5609C185.661 28.5852 184.391 29.0973 182.791 29.0973C180.934 29.0973 179.494 28.3611 178.469 26.8887C177.466 25.3949 176.965 23.1649 176.965 20.1987C176.965 17.3391 177.456 15.1305 178.437 13.5727C179.419 12.0149 180.881 11.236 182.823 11.236C184.359 11.236 185.607 11.7374 186.568 12.7404C187.528 13.722 188.094 15.0878 188.264 16.8376H193.61C193.46 14.9598 192.948 13.2953 192.073 11.8441C191.198 10.393 189.982 9.26204 188.424 8.45113C186.867 7.61888 184.989 7.20276 182.791 7.20276C179.12 7.20276 176.303 8.3551 174.34 10.6598C172.377 12.9645 171.395 16.1334 171.395 20.1666C171.395 24.2425 172.388 27.4222 174.372 29.7055ZM198.204 30.3457C199.975 32.2023 202.664 33.1305 206.271 33.1305C209.898 33.1305 212.587 32.2023 214.337 30.3457C216.087 28.4678 216.962 25.7897 216.962 22.3113V7.6829H211.648V22.1512C211.648 24.1999 211.264 25.8003 210.496 26.9527C209.728 28.105 208.341 28.6812 206.335 28.6812C204.35 28.6812 202.963 28.105 202.173 26.9527C201.405 25.8003 201.021 24.1999 201.021 22.1512V7.6829H195.579V22.3113C195.579 25.7897 196.454 28.4678 198.204 30.3457ZM231.315 7.6829H221.52V32.6504H232.211C235.519 32.6504 237.887 31.9889 239.317 30.6658C240.768 29.3214 241.494 27.5502 241.494 25.3522C241.494 23.6023 241.067 22.2686 240.213 21.351C239.381 20.4334 238.154 19.7932 236.532 19.4304V18.6622C237.749 18.2994 238.656 17.7339 239.253 16.9657C239.851 16.1975 240.149 15.1945 240.149 13.9568C240.149 12.0362 239.456 10.5104 238.069 9.37941C236.682 8.2484 234.43 7.6829 231.315 7.6829ZM231.507 28.8092H226.641V21.511H231.507C232.958 21.511 234.089 21.8098 234.9 22.4073C235.711 22.9835 236.116 23.9011 236.116 25.1601C236.116 26.2912 235.753 27.1874 235.028 27.8489C234.302 28.4891 233.129 28.8092 231.507 28.8092ZM230.931 17.7339H226.641V11.5241H230.931C233.577 11.5241 234.9 12.559 234.9 14.629C234.9 15.696 234.537 16.4855 233.811 16.9977C233.107 17.4885 232.147 17.7339 230.931 17.7339ZM261.918 7.6829H244.889V32.6504H262.11V28.4251H250.203V21.319H259.23V17.4138H250.203V11.9082H261.918V7.6829ZM269.628 32.3623C270.972 32.8745 272.615 33.1305 274.557 33.1305C277.545 33.1305 279.86 32.469 281.503 31.1459C283.168 29.8015 284 27.9663 284 25.6403C284 24.1038 283.659 22.8661 282.976 21.9272C282.314 20.9669 281.461 20.1987 280.415 19.6225C279.369 19.0463 278.26 18.5662 277.086 18.1821L273.469 16.9657C272.487 16.6242 271.698 16.2081 271.1 15.7173C270.524 15.2265 270.236 14.5756 270.236 13.7647C270.236 13.0178 270.513 12.399 271.068 11.9082C271.644 11.4174 272.519 11.1719 273.693 11.1719C274.739 11.1719 275.571 11.3427 276.19 11.6841C276.808 12.0255 277.257 12.4737 277.534 13.0285C277.833 13.562 278.004 14.1275 278.046 14.725H283.04C282.912 13.4873 282.549 12.303 281.951 11.1719C281.375 10.0196 280.447 9.06998 279.167 8.32309C277.886 7.5762 276.136 7.20276 273.917 7.20276C272.188 7.20276 270.652 7.4695 269.308 8.00299C267.985 8.53649 266.939 9.31539 266.171 10.3397C265.424 11.364 265.05 12.623 265.05 14.1168C265.05 15.5679 265.392 16.763 266.075 17.7019C266.757 18.6195 267.622 19.3664 268.667 19.9426C269.734 20.4974 270.844 20.9669 271.996 21.351L275.613 22.5674C276.574 22.8875 277.342 23.3249 277.918 23.8798C278.516 24.4346 278.814 25.1495 278.814 26.0244C278.814 26.942 278.473 27.6889 277.79 28.2651C277.129 28.8199 276.104 29.0973 274.717 29.0973C273.437 29.0973 272.37 28.8733 271.516 28.4251C270.663 27.977 270.022 27.4008 269.596 26.6966C269.169 25.9924 268.934 25.2562 268.891 24.4879H263.898C263.962 25.4696 264.186 26.4725 264.57 27.4968C264.976 28.4998 265.584 29.4281 266.395 30.2817C267.227 31.1353 268.305 31.8288 269.628 32.3623ZM48.0693 43.2792V48.0349H48.7522V46.0351H49.7643C50.37 46.0351 50.811 45.9111 51.0874 45.6632C51.3678 45.4112 51.5081 45.0758 51.5081 44.6572C51.5081 44.2385 51.3678 43.9052 51.0874 43.6572C50.811 43.4052 50.37 43.2792 49.7643 43.2792H48.0693ZM49.7338 45.4864H48.7522V43.828H49.7338C50.1159 43.828 50.3903 43.895 50.5569 44.0292C50.7277 44.1633 50.813 44.3726 50.813 44.6572C50.813 44.9417 50.7277 45.151 50.5569 45.2852C50.3903 45.4193 50.1159 45.4864 49.7338 45.4864ZM52.4058 47.6081C52.6781 47.9536 53.0927 48.1264 53.6496 48.1264C54.2064 48.1264 54.619 47.9536 54.8873 47.6081C55.1596 47.2586 55.2958 46.7911 55.2958 46.2058C55.2958 45.6205 55.1596 45.1551 54.8873 44.8096C54.619 44.46 54.2064 44.2852 53.6496 44.2852C53.0927 44.2852 52.6781 44.46 52.4058 44.8096C52.1375 45.1551 52.0034 45.6205 52.0034 46.2058C52.0034 46.7911 52.1375 47.2586 52.4058 47.6081ZM54.3873 47.2179C54.2329 47.4659 53.987 47.5898 53.6496 47.5898C53.3122 47.5898 53.0643 47.4659 52.9057 47.2179C52.7513 46.97 52.674 46.6326 52.674 46.2058C52.674 45.779 52.7513 45.4416 52.9057 45.1937C53.0643 44.9458 53.3122 44.8218 53.6496 44.8218C53.987 44.8218 54.2329 44.9458 54.3873 45.1937C54.5458 45.4416 54.6251 45.779 54.6251 46.2058C54.6251 46.6326 54.5458 46.97 54.3873 47.2179ZM55.8291 44.4133L56.5059 48.0349H57.5729L58.2313 44.901H58.4021L59.0605 48.0349H60.1275L60.8043 44.4133V44.3767H60.219L59.6459 47.4862H59.5239L58.8654 44.3767H57.8045L57.1522 47.4862H57.0302L56.451 44.3767H55.8291V44.4133ZM61.7493 47.602C62.0298 47.9516 62.4383 48.1264 62.9749 48.1264C63.2675 48.1264 63.5155 48.0736 63.7187 47.9679C63.9219 47.8581 64.0845 47.7098 64.2065 47.5228C64.3284 47.3317 64.4158 47.1122 64.4686 46.8643H63.8467C63.7858 47.096 63.6841 47.2769 63.5419 47.4069C63.3996 47.537 63.2126 47.602 62.9809 47.602C62.6598 47.602 62.416 47.4882 62.2493 47.2606C62.0867 47.0289 61.9953 46.7342 61.9749 46.3765H64.5052V46.1875C64.5052 45.5697 64.3731 45.0982 64.1089 44.773C63.8488 44.4478 63.4687 44.2852 62.9688 44.2852C62.6111 44.2852 62.3103 44.3665 62.0664 44.5291C61.8266 44.6917 61.6437 44.9173 61.5177 45.2059C61.3957 45.4904 61.3347 45.8237 61.3347 46.2058C61.3347 46.783 61.4729 47.2484 61.7493 47.602ZM63.865 45.901H61.981C62.0176 45.5555 62.1172 45.2872 62.2798 45.0961C62.4464 44.9051 62.6741 44.8096 62.9627 44.8096C63.235 44.8096 63.4504 44.9031 63.6089 45.0901C63.7675 45.277 63.8528 45.5473 63.865 45.901ZM65.3195 44.3767V48.0349H65.9779V46.1326C65.9779 45.7302 66.0531 45.4356 66.2035 45.2486C66.3539 45.0575 66.612 44.962 66.9779 44.962H67.1608V44.3401H67.0388C66.7949 44.3401 66.6059 44.3747 66.4718 44.4438C66.3377 44.5088 66.2401 44.5921 66.1791 44.6937C66.1182 44.7954 66.0755 44.897 66.0511 44.9986H65.9048V44.3767H65.3195ZM67.9083 47.602C68.1888 47.9516 68.5973 48.1264 69.1338 48.1264C69.4265 48.1264 69.6744 48.0736 69.8777 47.9679C70.0809 47.8581 70.2435 47.7098 70.3654 47.5228C70.4874 47.3317 70.5748 47.1122 70.6276 46.8643H70.0057C69.9447 47.096 69.8431 47.2769 69.7009 47.4069C69.5586 47.537 69.3716 47.602 69.1399 47.602C68.8188 47.602 68.5749 47.4882 68.4083 47.2606C68.2457 47.0289 68.1542 46.7342 68.1339 46.3765H70.6642V46.1875C70.6642 45.5697 70.5321 45.0982 70.2679 44.773C70.0077 44.4478 69.6277 44.2852 69.1277 44.2852C68.7701 44.2852 68.4693 44.3665 68.2254 44.5291C67.9856 44.6917 67.8026 44.9173 67.6766 45.2059C67.5547 45.4904 67.4937 45.8237 67.4937 46.2058C67.4937 46.783 67.6319 47.2484 67.9083 47.602ZM70.024 45.901H68.14C68.1766 45.5555 68.2762 45.2872 68.4388 45.0961C68.6054 44.9051 68.8331 44.8096 69.1216 44.8096C69.394 44.8096 69.6094 44.9031 69.7679 45.0901C69.9265 45.277 70.0118 45.5473 70.024 45.901ZM71.8809 47.8886C72.1003 48.0471 72.3666 48.1264 72.6796 48.1264C72.96 48.1264 73.1836 48.0695 73.3502 47.9557C73.5169 47.8378 73.6327 47.7057 73.6978 47.5594H73.8441V48.0349H74.4294V43.1573H73.771V44.8157H73.6246C73.5474 44.6572 73.4295 44.5291 73.271 44.4316C73.1165 44.334 72.9153 44.2852 72.6674 44.2852C72.3585 44.2852 72.0943 44.3645 71.8748 44.523C71.6593 44.6815 71.4927 44.9051 71.3748 45.1937C71.261 45.4782 71.2041 45.8156 71.2041 46.2058C71.2041 46.596 71.261 46.9354 71.3748 47.224C71.4927 47.5086 71.6614 47.7301 71.8809 47.8886ZM73.521 47.1996C73.3421 47.4516 73.1003 47.5777 72.7954 47.5777C72.4987 47.5777 72.2711 47.4577 72.1125 47.2179C71.954 46.9781 71.8748 46.6407 71.8748 46.2058C71.8748 45.7709 71.954 45.4335 72.1125 45.1937C72.2711 44.9539 72.4987 44.834 72.7954 44.834C73.1003 44.834 73.3421 44.96 73.521 45.212C73.6998 45.464 73.7892 45.7953 73.7892 46.2058C73.7892 46.6164 73.6998 46.9476 73.521 47.1996ZM78.0328 47.9557C78.1994 48.0695 78.423 48.1264 78.7035 48.1264C79.0165 48.1264 79.2827 48.0471 79.5022 47.8886C79.7217 47.7301 79.8883 47.5086 80.0021 47.224C80.12 46.9354 80.179 46.596 80.179 46.2058C80.179 45.8156 80.12 45.4782 80.0021 45.1937C79.8883 44.9051 79.7217 44.6815 79.5022 44.523C79.2868 44.3645 79.0246 44.2852 78.7157 44.2852C78.4677 44.2852 78.2665 44.334 78.1121 44.4316C77.9576 44.5291 77.8397 44.6572 77.7584 44.8157H77.6121V43.1573H76.9536V48.0349H77.5389V47.5594H77.6853C77.7503 47.7057 77.8661 47.8378 78.0328 47.9557ZM79.2705 47.2179C79.112 47.4577 78.8843 47.5777 78.5876 47.5777C78.2828 47.5777 78.0409 47.4516 77.8621 47.1996C77.6832 46.9476 77.5938 46.6164 77.5938 46.2058C77.5938 45.7953 77.6832 45.464 77.8621 45.212C78.0409 44.96 78.2828 44.834 78.5876 44.834C78.8843 44.834 79.112 44.9539 79.2705 45.1937C79.429 45.4335 79.5083 45.7709 79.5083 46.2058C79.5083 46.6407 79.429 46.9781 79.2705 47.2179ZM81.0888 49.2178V49.2543H81.7716C81.8773 49.0877 81.9932 48.8682 82.1192 48.5959C82.2492 48.3235 82.3752 48.0268 82.4972 47.7057L83.7532 44.4133V44.3767H83.1435L82.4606 46.2058C82.42 46.3115 82.3793 46.4233 82.3387 46.5412C82.3021 46.655 82.2635 46.7952 82.2228 46.9619H82.0765C82.0358 46.7952 81.9952 46.655 81.9545 46.5412C81.918 46.4233 81.8793 46.3115 81.8387 46.2058L81.1558 44.3767H80.4973V44.4133L81.8143 47.8459C81.7086 48.0979 81.5908 48.3439 81.4607 48.5837C81.3306 48.8276 81.2066 49.0389 81.0888 49.2178Z" fill="white"/>
<path fill-rule="evenodd" clip-rule="evenodd" d="M98.5963 47.1351V40.5812L92.3827 43.9026L92.3029 43.9473L92.3 50.6241H96.3058L98.3654 53.9923L104.641 50.6355V43.9026L98.5963 47.1351ZM100.609 50.6241H103.991L98.8924 53.3515L100.609 50.6241ZM96.692 50.6241H98.261V53.1889L96.692 50.6241ZM92.6981 50.4686L95.345 49.0532L96.2106 50.4686H92.6981ZM94.3879 47.4885L95.2627 48.9187L92.614 50.3347L94.3879 47.4885ZM94.2915 47.3318L92.4687 50.2568V44.351L94.2915 47.3318ZM98.1148 41.1974L94.4866 47.0193L92.6981 44.0951L98.1148 41.1974ZM95.5527 48.7623L94.5826 47.1757L98.261 41.2753V47.3153L95.5527 48.7623ZM98.261 50.4686H96.5972L95.6361 48.8972L98.261 47.4944V50.4686ZM98.5963 50.6241H100.22L98.5963 53.2037V50.6241ZM104.185 44.3265L100.318 50.4686H98.5963V47.3153L104.185 44.3265ZM104.282 50.4686H100.707L104.305 44.7553V50.468L104.282 50.4686Z" fill="white"/>
<path d="M141.082 53.9725L145.138 40.6009H144.884L140.827 53.9725H141.082Z" fill="white"/>
<path d="M145.796 40.6009L141.739 53.9725H141.994L146.05 40.6009H145.796Z" fill="white"/>
<path d="M110.775 47.6413V49.6017H111.645V45.1031H110.775V46.8613H108.814V45.1031H107.944V49.6017H108.814V47.6413H110.775Z" fill="white"/>
<path d="M112.553 49.6017V45.1031H115.815V45.8454H113.421V46.8926H115.511V47.6288H113.421V48.8586H115.815V49.6017H112.553Z" fill="white"/>
<path d="M118.257 47.9651L119.327 49.6017H120.285L118.796 47.3179L120.266 45.1031H119.322L118.284 46.6776L117.212 45.1031H116.261L117.752 47.3113L116.249 49.6017H117.185L118.257 47.9651Z" fill="white"/>
<path fill-rule="evenodd" clip-rule="evenodd" d="M123.735 49.6017L123.424 48.7388H121.524L121.214 49.6017H120.338L122.015 45.1031H122.966L124.644 49.6017H123.735ZM122.474 46.1055L121.794 48.0032H123.154L122.474 46.1055Z" fill="white"/>
<path d="M128.057 49.106L128.561 49.6017H128.718V47.1395H126.737V47.8193H127.876C127.876 48.1617 127.821 48.4408 127.566 48.6948C127.404 48.853 127.16 48.9553 126.852 48.9553C126.574 48.9553 126.265 48.8586 126.074 48.6694C125.745 48.346 125.698 47.7681 125.698 47.356C125.698 46.9441 125.738 46.3846 126.068 46.0619C126.257 45.8717 126.574 45.7573 126.852 45.7573C127.182 45.7573 127.444 45.8453 127.612 46.0304C127.714 46.145 127.807 46.2647 127.821 46.4427H128.711C128.685 46.0496 128.509 45.7634 128.274 45.5357C127.949 45.2248 127.444 45.0205 126.857 45.0205C126.345 45.0205 125.8 45.2058 125.435 45.5482C124.916 46.0362 124.814 46.62 124.814 47.356C124.814 48.0918 124.938 48.6948 125.434 49.1826C125.813 49.5577 126.305 49.6906 126.857 49.6842C127.458 49.6775 127.915 49.3674 128.057 49.106Z" fill="white"/>
<path fill-rule="evenodd" clip-rule="evenodd" d="M132.775 49.1771C132.411 49.5192 131.913 49.6842 131.4 49.6842C130.889 49.6842 130.389 49.5192 130.025 49.1771C129.505 48.6877 129.418 48.0918 129.418 47.356C129.418 46.62 129.505 46.0167 130.025 45.5287C130.389 45.1867 130.889 45.0205 131.4 45.0205C131.913 45.0205 132.411 45.1867 132.775 45.5287C133.294 46.0167 133.382 46.62 133.382 47.356C133.382 48.0918 133.294 48.6877 132.775 49.1771ZM132.156 46.0619C131.967 45.8717 131.677 45.7634 131.4 45.7634C131.125 45.7634 130.833 45.8717 130.645 46.0619C130.316 46.3846 130.301 46.9441 130.301 47.356C130.301 47.7682 130.316 48.3197 130.645 48.6437C130.833 48.8344 131.125 48.9415 131.4 48.9415C131.677 48.9415 131.967 48.8344 132.156 48.6437C132.486 48.3197 132.5 47.7682 132.5 47.356C132.5 46.9441 132.486 46.3846 132.156 46.0619Z" fill="white"/>
<path d="M134.903 46.5121L136.973 49.6017H137.867V45.1031H137.012V48.148L134.97 45.1031H134.046V49.6017H134.903V46.5121Z" fill="white"/>
<path d="M157.745 44.0331C156.823 43.1658 155.552 42.6302 154.146 42.63C152.739 42.6302 151.468 43.1658 150.546 44.0331C149.625 44.9007 149.055 46.097 149.055 47.4204C149.055 47.9148 149.135 48.3915 149.283 48.8399C149.88 50.6396 151.572 51.9843 153.625 52.1832L153.644 52.1848C153.719 52.1919 153.794 52.1971 153.87 52.2011C153.887 52.202 153.905 52.2026 153.923 52.2034C153.963 52.205 154.004 52.2057 154.045 52.2063L154.062 52.2066C154.073 52.2069 154.085 52.2072 154.097 52.2076C154.116 52.2082 154.134 52.2088 154.154 52.2088C154.725 52.2088 155.274 52.1188 155.787 51.9556L155.294 51.491C154.929 51.5812 154.548 51.6306 154.154 51.6306C154.135 51.6306 154.116 51.6299 154.097 51.6293L154.08 51.6288C154.074 51.6286 154.068 51.6284 154.062 51.6283C151.626 51.582 149.666 49.7107 149.666 47.4074C149.666 45.0752 151.675 43.1844 154.154 43.1844C156.632 43.1844 158.641 45.0752 158.641 47.4074C158.641 48.6178 158.099 49.7089 157.232 50.4788L155.383 48.7801L155.504 48.7351L155.662 48.6766C156.376 48.4116 156.886 47.7569 156.886 46.9957V46.9948C156.886 46.9502 156.884 46.9048 156.881 46.8589C156.843 46.3842 156.607 45.9683 156.251 45.6678C155.895 45.3674 155.42 45.1863 154.911 45.1864H152.757V45.7499H154.92C155.27 45.75 155.599 45.8737 155.846 46.0805C156.094 46.287 156.262 46.5804 156.285 46.9148C156.287 46.9422 156.287 46.9689 156.287 46.995C156.287 47.682 155.694 48.24 154.964 48.2403H154.292L154.292 48.6496L157.113 51.3077C158.398 50.4375 159.236 49.023 159.236 47.4204C159.236 46.097 158.666 44.9007 157.745 44.0331Z" fill="white"/>
<path fill-rule="evenodd" clip-rule="evenodd" d="M167.661 49.2141C167.957 49.4967 168.343 49.6379 168.82 49.6379C169.098 49.6379 169.35 49.5861 169.574 49.4822C169.797 49.3784 169.976 49.2322 170.111 49.0438L169.705 48.6797C169.488 48.9418 169.208 49.0728 168.863 49.0728C168.618 49.0728 168.414 48.9972 168.252 48.8457C168.09 48.6942 167.997 48.4884 167.975 48.2281H170.163V47.9426C170.163 47.4415 170.039 47.0541 169.79 46.7803C169.541 46.5064 169.189 46.3695 168.733 46.3695C168.446 46.3695 168.186 46.4385 167.953 46.5764C167.72 46.7143 167.539 46.9071 167.41 47.1546C167.281 47.4023 167.216 47.6833 167.216 47.998V48.0854C167.216 48.5553 167.364 48.9316 167.661 49.2141ZM168.23 47.1415C168.357 47.0057 168.524 46.9376 168.73 46.9376C168.938 46.9376 169.101 46.9983 169.219 47.1197C169.337 47.2411 169.404 47.4202 169.42 47.6571V47.7097H167.987C168.022 47.4668 168.103 47.2774 168.23 47.1415Z" fill="white"/>
<path d="M171.951 48.6825L172.659 46.4279H173.436L172.276 49.5798H171.623L170.453 46.4279H171.233L171.951 48.6825Z" fill="white"/>
<path fill-rule="evenodd" clip-rule="evenodd" d="M173.979 47.1401C173.849 47.3877 173.784 47.6658 173.784 47.9748V48.0095C173.784 48.5029 173.926 48.8977 174.209 49.1939C174.493 49.49 174.871 49.6379 175.344 49.6379C175.653 49.6379 175.926 49.571 176.163 49.4371C176.399 49.303 176.58 49.1137 176.707 48.8691C176.834 48.6243 176.897 48.3466 176.897 48.0359L176.895 47.8699C176.872 47.4174 176.72 47.0541 176.438 46.7803C176.156 46.5064 175.789 46.3695 175.338 46.3695C175.032 46.3695 174.762 46.4361 174.527 46.5692C174.291 46.7022 174.109 46.8924 173.979 47.1401ZM174.749 48.7977C174.607 48.6141 174.536 48.3602 174.536 48.0359C174.536 47.6707 174.608 47.3964 174.752 47.213C174.897 47.0294 175.092 46.9376 175.338 46.9376C175.587 46.9376 175.785 47.0308 175.93 47.2173C176.076 47.4037 176.149 47.6562 176.149 47.9748C176.149 48.3339 176.078 48.6068 175.936 48.7932C175.795 48.9797 175.598 49.0728 175.344 49.0728C175.09 49.0728 174.892 48.981 174.749 48.7977Z" fill="white"/>
<path d="M178.27 49.5798H177.518V45.1054H178.27V49.5798Z" fill="white"/>
<path d="M180.367 49.6379C180.774 49.6379 181.087 49.5156 181.308 49.271L181.327 49.5798H182.036V46.4279H181.284V48.6913C181.156 48.938 180.909 49.0612 180.544 49.0612C180.191 49.0612 180.014 48.8613 180.014 48.4611V46.4279H179.262V48.47C179.262 48.8486 179.356 49.138 179.542 49.3379C179.729 49.538 180.004 49.6379 180.367 49.6379Z" fill="white"/>
<path d="M183.935 45.6617V46.4279H184.526V46.9522H183.935V48.7118C183.935 48.832 183.96 48.919 184.01 48.9724C184.061 49.0257 184.151 49.0526 184.281 49.0526C184.368 49.0526 184.456 49.0429 184.544 49.0234V49.571C184.373 49.6157 184.208 49.6379 184.049 49.6379C183.471 49.6379 183.182 49.3379 183.182 48.7379V46.9522H182.631V46.4279H183.182V45.6617H183.935Z" fill="white"/>
<path d="M185.338 49.5798H186.09V46.4279H185.338V49.5798Z" fill="white"/>
<path d="M185.402 45.3383C185.328 45.4102 185.292 45.5005 185.292 45.6093C185.292 45.7161 185.328 45.805 185.402 45.8759C185.475 45.9467 185.58 45.9821 185.716 45.9821C185.852 45.9821 185.957 45.9467 186.032 45.8759C186.106 45.805 186.143 45.7161 186.143 45.6093C186.143 45.5005 186.106 45.4102 186.032 45.3383C185.957 45.2665 185.852 45.2307 185.716 45.2307C185.58 45.2307 185.475 45.2665 185.402 45.3383Z" fill="white"/>
<path fill-rule="evenodd" clip-rule="evenodd" d="M186.831 47.9748C186.831 47.6658 186.896 47.3877 187.026 47.1401C187.156 46.8924 187.339 46.7022 187.574 46.5692C187.81 46.4361 188.08 46.3695 188.385 46.3695C188.837 46.3695 189.204 46.5064 189.486 46.7803C189.767 47.0541 189.92 47.4174 189.942 47.8699L189.945 48.0359C189.945 48.3466 189.882 48.6243 189.755 48.8691C189.628 49.1137 189.446 49.303 189.21 49.4371C188.974 49.571 188.701 49.6379 188.391 49.6379C187.919 49.6379 187.541 49.49 187.257 49.1939C186.973 48.8977 186.831 48.5029 186.831 48.0095V47.9748ZM187.584 48.0359C187.584 48.3602 187.655 48.6141 187.797 48.7977C187.94 48.981 188.138 49.0728 188.391 49.0728C188.645 49.0728 188.843 48.9797 188.984 48.7932C189.126 48.6068 189.196 48.3339 189.196 47.9748C189.196 47.6562 189.123 47.4037 188.978 47.2173C188.833 47.0308 188.635 46.9376 188.385 46.9376C188.14 46.9376 187.945 47.0294 187.8 47.213C187.656 47.3964 187.584 47.6707 187.584 48.0359Z" fill="white"/>
<path d="M191.238 46.7919L191.216 46.4279H190.507V49.5798H191.26V47.3367C191.408 47.0784 191.634 46.9492 191.937 46.9492C192.146 46.9492 192.296 46.9974 192.388 47.0935C192.48 47.1897 192.526 47.3377 192.526 47.5377V49.5798H193.278V47.497C193.265 46.7454 192.91 46.3695 192.213 46.3695C191.811 46.3695 191.486 46.5105 191.238 46.7919Z" fill="white"/>
<path d="M166.744 48.2265H165.694V47.7097H166.744V48.2265Z" fill="white"/>
<path d="M164.612 47.8792L164.549 47.9026L166.38 49.5996H165.354L163.449 47.8098L163.449 47.3683H164.053C164.542 47.368 164.94 46.9934 164.94 46.5331C164.94 46.5164 164.94 46.4995 164.938 46.4819L164.938 46.4767C164.924 46.2647 164.819 46.067 164.645 45.9211C164.473 45.7775 164.251 45.6982 164.019 45.6981H162.301V45.0854H164.013C164.409 45.0854 164.789 45.2219 165.083 45.4698C165.379 45.7197 165.558 46.0588 165.587 46.4246C165.59 46.4593 165.591 46.4946 165.591 46.5292L165.591 46.5487C165.584 47.1298 165.191 47.6639 164.612 47.8792Z" fill="white"/>
</svg>
