<svg width="89" height="28" viewBox="0 0 89 28" fill="none" xmlns="http://www.w3.org/2000/svg">
<path fill-rule="evenodd" clip-rule="evenodd" d="M4.81595 13.9973L11.6116 2.0928V13.729L6.40603 16.7489L4.81595 13.9973ZM12.491 14.2342V20.238H15.6526L22.3792 8.42335L12.491 14.2342ZM12.4998 21.112H15.2043L12.4998 25.8882V21.112ZM24.0131 20.675C24.0131 20.7065 24.0098 20.7371 24.0035 20.7667C24.0007 20.9154 23.9218 21.0562 23.789 21.1348L12.3415 27.8998C12.294 27.9392 12.2377 27.9688 12.1752 27.9854C12.136 27.9958 12.0963 28.0005 12.0572 28C11.9442 28.001 11.832 27.9582 11.7471 27.8746C11.6955 27.8238 11.6588 27.7626 11.6377 27.6969L7.89714 21.1186H0.436249C0.238848 21.1186 0.0660494 20.9858 0.0149235 20.7948C0.00461195 20.7562 -0.000223845 20.7173 1.64132e-05 20.6788L0 20.675V7.26529V7.21858C0 7.02088 0.132506 6.84781 0.323111 6.79655C0.3463 6.79032 0.369647 6.78607 0.392947 6.78374L11.7819 0.0905497C11.8614 0.0293752 11.9604 -0.00309742 12.062 0.000233078C12.1713 0.00221257 12.279 0.0452927 12.361 0.126445C12.4647 0.229224 12.508 0.374107 12.484 0.512068V13.225L23.3466 6.84165C23.4169 6.80031 23.4951 6.78065 23.5725 6.7816C23.611 6.78122 23.6501 6.78595 23.6887 6.7962C23.8799 6.84699 24.0131 7.02037 24.0131 7.21858V20.675ZM6.86024 17.5119L8.45698 20.2797H11.6167V14.7486L6.86024 17.5119ZM7.41034 20.2446L6.07393 17.9229L2.06302 20.2446H7.41034ZM0.872419 19.0425L3.7955 13.9643L0.872419 8.89491V19.0425ZM5.63873 17.1655L4.29669 14.8431L1.62132 19.491L5.63873 17.1655ZM10.8531 1.64966L1.05091 7.41029L4.32694 13.082L10.8531 1.64966ZM23.1407 20.2381H16.6665L23.1407 8.86676V20.2381ZM11.6273 25.913L8.94484 21.1954H11.6273V25.913ZM16.1601 21.1954L13.2384 26.3551L21.9694 21.1954H16.1601ZM70.5355 18.1082C70.6271 18.2518 70.7237 18.4032 70.8487 18.4883V13.5769H67.3607V14.7917H69.2563V15.9555C69.2563 16.3261 68.3296 17.1518 67.5123 17.1518C66.7667 17.1518 66.1843 16.8765 65.7651 16.3261C65.346 15.7756 65.1364 15.0026 65.1364 14.0072V13.2985C65.149 12.2988 65.3418 11.5406 65.7146 11.0239C66.0874 10.5072 66.6319 10.2488 67.348 10.2488C68.4559 10.2488 69.0984 10.8035 69.2753 11.9129H70.8424C70.7202 10.9596 70.3579 10.2299 69.7555 9.72369C69.1531 9.21751 68.3401 8.96443 67.3164 8.96443C66.1242 8.96443 65.1954 9.35566 64.5298 10.1381C63.8642 10.9206 63.5314 12.0078 63.5314 13.3998V14.1211C63.544 14.99 63.7115 15.7503 64.0337 16.402C64.356 17.0537 64.8141 17.5546 65.4081 17.9047C66.0021 18.2548 66.6845 18.4298 67.4554 18.4298C68.2053 18.4298 68.8751 18.3181 69.4649 18.0945C69.5054 18.0791 69.547 18.0669 69.5882 18.0547C69.6954 18.0231 69.8002 17.9921 69.879 17.9092C70.1957 17.5759 70.3561 17.8272 70.5355 18.1082ZM36.2021 18.3388H37.7944V9.12652H36.2021V12.9608H32.0885V9.12652H30.4898V18.3388H32.0885V14.2452H36.2021V18.3388ZM41.2811 14.2355H45.0598V12.9701H41.2811V10.4266H45.6538V9.13587H39.6824V18.3482H45.698V17.0701H41.2811V14.2355ZM50.164 12.4639L52.0975 9.13587H53.9427L51.1623 13.7041L54.0059 18.3482H52.1418L50.164 14.9695L48.1798 18.3482H46.3221L49.1719 13.7041L46.3852 9.13587H48.2304L50.164 12.4639ZM56.7843 16.2033H60.3482L61.1002 18.3482H62.7684L59.2866 9.13587H57.8522L54.3768 18.3482H56.0387L56.7843 16.2033ZM58.5651 11.0364L57.2318 14.858H59.8984L58.5651 11.0364ZM79.9604 13.9376C79.9604 14.8402 79.8046 15.6322 79.4928 16.3134C79.1811 16.9946 78.7356 17.5177 78.1564 17.8825C77.5771 18.2474 76.9105 18.4298 76.1564 18.4298C75.4108 18.4298 74.7463 18.2474 74.1628 17.8825C73.5794 17.5177 73.1286 16.9978 72.8106 16.3229C72.4925 15.648 72.3314 14.8698 72.3272 13.9882V13.4694C72.3272 12.5709 72.4862 11.7779 72.8043 11.0904C73.1223 10.4028 73.5709 9.8766 74.1502 9.51173C74.7294 9.14686 75.394 8.96443 76.1438 8.96443C76.8936 8.96443 77.5582 9.14475 78.1374 9.5054C78.7167 9.86605 79.1642 10.3849 79.4802 11.0619C79.7961 11.7389 79.9562 12.5266 79.9604 13.4251V13.9376ZM77.7753 11.0646C78.1608 11.6088 78.3535 12.3912 78.3535 13.412V13.8929C78.3535 14.9305 78.1629 15.7193 77.7816 16.2592C77.4004 16.7991 76.8559 17.0691 76.1482 17.0691C75.4489 17.0691 74.9023 16.7928 74.5084 16.2402C74.1145 15.6877 73.9176 14.9052 73.9176 13.8929V13.3614C73.926 12.3701 74.1251 11.6035 74.5147 11.0615C74.9044 10.5194 75.4447 10.2484 76.1356 10.2484C76.8433 10.2484 77.3899 10.5205 77.7753 11.0646ZM88.844 18.3482H87.2453L83.1443 11.8122V18.3482H81.5456V9.13587H83.1443L87.2579 15.6971V9.13587H88.844V18.3482Z" fill="black"/>
</svg>
