<svg width="277" height="271" viewBox="0 0 277 271" fill="none" xmlns="http://www.w3.org/2000/svg">
<path d="M46.2879 242V223.968H49.3399V239.648H58.5799V242H46.2879ZM68.1312 242.28C65.2752 242.28 63.1379 241.533 61.7192 240.04C60.3005 238.528 59.5912 236.195 59.5912 233.04C59.5912 229.755 60.3005 227.375 61.7192 225.9C63.1379 224.425 65.2752 223.688 68.1312 223.688C71.0059 223.688 73.1432 224.425 74.5432 225.9C75.9619 227.375 76.6712 229.755 76.6712 233.04C76.6712 236.195 75.9619 238.528 74.5432 240.04C73.1432 241.533 71.0059 242.28 68.1312 242.28ZM68.1312 239.704C70.0165 239.704 71.3979 239.191 72.2752 238.164C73.1712 237.119 73.6192 235.411 73.6192 233.04C73.6192 230.539 73.1712 228.793 72.2752 227.804C71.3979 226.796 70.0165 226.292 68.1312 226.292C66.2645 226.292 64.8832 226.796 63.9872 227.804C63.1099 228.793 62.6712 230.539 62.6712 233.04C62.6712 235.411 63.1099 237.119 63.9872 238.164C64.8832 239.191 66.2645 239.704 68.1312 239.704ZM87.6273 242.28C84.7713 242.28 82.634 241.533 81.2153 240.04C79.7966 238.528 79.0873 236.195 79.0873 233.04C79.0873 229.755 79.7966 227.375 81.2153 225.9C82.634 224.425 84.7713 223.688 87.6273 223.688C90.502 223.688 92.6393 224.425 94.0393 225.9C95.458 227.375 96.1673 229.755 96.1673 233.04C96.1673 236.195 95.458 238.528 94.0393 240.04C92.6393 241.533 90.502 242.28 87.6273 242.28ZM87.6273 239.704C89.5126 239.704 90.894 239.191 91.7713 238.164C92.6673 237.119 93.1153 235.411 93.1153 233.04C93.1153 230.539 92.6673 228.793 91.7713 227.804C90.894 226.796 89.5126 226.292 87.6273 226.292C85.7606 226.292 84.3793 226.796 83.4833 227.804C82.606 228.793 82.1673 230.539 82.1673 233.04C82.1673 235.411 82.606 237.119 83.4833 238.164C84.3793 239.191 85.7606 239.704 87.6273 239.704ZM99.1434 242V223.968H102.195V232.256L109.867 223.968H113.395L106.759 231.248L113.675 242H110.427L104.855 233.18L102.195 236.036V242H99.1434ZM122.565 242L129.453 223.968H132.869L139.701 242H136.565L134.773 237.352H127.521L125.729 242H122.565ZM127.997 235H134.269L131.133 226.74L127.997 235ZM142.702 242V223.968H150.99C153.006 223.968 154.471 224.491 155.386 225.536C156.319 226.563 156.786 227.963 156.786 229.736C156.786 231.005 156.469 232.088 155.834 232.984C155.199 233.88 154.285 234.505 153.09 234.86C153.426 235.103 153.687 235.364 153.874 235.644C154.061 235.924 154.247 236.297 154.434 236.764L156.702 242H153.566L151.354 236.96C151.149 236.475 150.897 236.129 150.598 235.924C150.318 235.719 149.833 235.616 149.142 235.616H145.754V242H142.702ZM145.754 233.152H150.178C151.279 233.152 152.147 232.881 152.782 232.34C153.417 231.799 153.734 230.931 153.734 229.736C153.734 227.477 152.642 226.348 150.458 226.348H145.754V233.152ZM167.362 242.28C164.506 242.28 162.368 241.533 160.95 240.04C159.531 238.528 158.822 236.195 158.822 233.04C158.822 229.755 159.531 227.375 160.95 225.9C162.368 224.425 164.506 223.688 167.362 223.688C170.236 223.688 172.374 224.425 173.774 225.9C175.192 227.375 175.902 229.755 175.902 233.04C175.902 236.195 175.192 238.528 173.774 240.04C172.374 241.533 170.236 242.28 167.362 242.28ZM167.362 239.704C169.247 239.704 170.628 239.191 171.506 238.164C172.402 237.119 172.85 235.411 172.85 233.04C172.85 230.539 172.402 228.793 171.506 227.804C170.628 226.796 169.247 226.292 167.362 226.292C165.495 226.292 164.114 226.796 163.218 227.804C162.34 228.793 161.902 230.539 161.902 233.04C161.902 235.411 162.34 237.119 163.218 238.164C164.114 239.191 165.495 239.704 167.362 239.704ZM186.578 242.28C184.095 242.28 182.163 241.683 180.782 240.488C179.419 239.293 178.738 237.567 178.738 235.308V223.968H181.79V235.196C181.79 236.708 182.2 237.837 183.022 238.584C183.862 239.331 185.047 239.704 186.578 239.704C188.09 239.704 189.256 239.331 190.078 238.584C190.918 237.837 191.338 236.708 191.338 235.196V223.968H194.362V235.308C194.362 237.567 193.68 239.293 192.318 240.488C190.955 241.683 189.042 242.28 186.578 242.28ZM197.745 242V223.968H200.433L209.841 237.24V223.968H212.865V242H210.177L200.797 228.756V242H197.745ZM216.421 242V223.968H223.729C226.398 223.968 228.377 224.677 229.665 226.096C230.953 227.496 231.597 229.829 231.597 233.096C231.597 236.176 230.962 238.435 229.693 239.872C228.423 241.291 226.435 242 223.729 242H216.421ZM219.473 239.648H223.253C224.429 239.648 225.409 239.48 226.193 239.144C226.977 238.789 227.565 238.136 227.957 237.184C228.349 236.232 228.545 234.869 228.545 233.096C228.545 231.323 228.367 229.951 228.013 228.98C227.658 228.009 227.089 227.328 226.305 226.936C225.539 226.544 224.522 226.348 223.253 226.348H219.473V239.648ZM2.26569 268L9.15369 249.968H12.5697L19.4017 268H16.2657L14.4737 263.352H7.22169L5.42969 268H2.26569ZM7.69769 261H13.9697L10.8337 252.74L7.69769 261ZM22.4032 268V249.968H25.0912L34.4992 263.24V249.968H37.5232V268H34.8352L25.4552 254.756V268H22.4032ZM41.0789 268V249.968H48.3869C51.0563 249.968 53.0349 250.677 54.3229 252.096C55.6109 253.496 56.2549 255.829 56.2549 259.096C56.2549 262.176 55.6203 264.435 54.3509 265.872C53.0816 267.291 51.0936 268 48.3869 268H41.0789ZM44.1309 265.648H47.9109C49.0869 265.648 50.0669 265.48 50.8509 265.144C51.6349 264.789 52.2229 264.136 52.6149 263.184C53.0069 262.232 53.2029 260.869 53.2029 259.096C53.2029 257.323 53.0256 255.951 52.6709 254.98C52.3163 254.009 51.7469 253.328 50.9629 252.936C50.1976 252.544 49.1803 252.348 47.9109 252.348H44.1309V265.648ZM70.3917 268V252.348H64.6237V249.968H79.1837V252.348H73.4437V268H70.3917ZM89.3297 268.28C86.8471 268.28 84.9151 267.683 83.5337 266.488C82.1711 265.293 81.4897 263.567 81.4897 261.308V249.968H84.5417V261.196C84.5417 262.708 84.9524 263.837 85.7737 264.584C86.6137 265.331 87.7991 265.704 89.3297 265.704C90.8417 265.704 92.0084 265.331 92.8297 264.584C93.6697 263.837 94.0897 262.708 94.0897 261.196V249.968H97.1137V261.308C97.1137 263.567 96.4324 265.293 95.0697 266.488C93.7071 267.683 91.7937 268.28 89.3297 268.28ZM100.497 268V249.968H108.785C110.801 249.968 112.266 250.491 113.181 251.536C114.114 252.563 114.581 253.963 114.581 255.736C114.581 257.005 114.264 258.088 113.629 258.984C112.994 259.88 112.08 260.505 110.885 260.86C111.221 261.103 111.482 261.364 111.669 261.644C111.856 261.924 112.042 262.297 112.229 262.764L114.497 268H111.361L109.149 262.96C108.944 262.475 108.692 262.129 108.393 261.924C108.113 261.719 107.628 261.616 106.937 261.616H103.549V268H100.497ZM103.549 259.152H107.973C109.074 259.152 109.942 258.881 110.577 258.34C111.212 257.799 111.529 256.931 111.529 255.736C111.529 253.477 110.437 252.348 108.253 252.348H103.549V259.152ZM117.587 268V249.968H120.275L129.683 263.24V249.968H132.707V268H130.019L120.639 254.756V268H117.587ZM150.696 268.28C147.84 268.28 145.702 267.533 144.284 266.04C142.865 264.528 142.156 262.195 142.156 259.04C142.156 255.755 142.865 253.375 144.284 251.9C145.702 250.425 147.84 249.688 150.696 249.688C153.57 249.688 155.708 250.425 157.108 251.9C158.526 253.375 159.236 255.755 159.236 259.04C159.236 262.195 158.526 264.528 157.108 266.04C155.708 267.533 153.57 268.28 150.696 268.28ZM150.696 265.704C152.581 265.704 153.962 265.191 154.84 264.164C155.736 263.119 156.184 261.411 156.184 259.04C156.184 256.539 155.736 254.793 154.84 253.804C153.962 252.796 152.581 252.292 150.696 252.292C148.829 252.292 147.448 252.796 146.552 253.804C145.674 254.793 145.236 256.539 145.236 259.04C145.236 261.411 145.674 263.119 146.552 264.164C147.448 265.191 148.829 265.704 150.696 265.704ZM162.212 268V249.968H164.9L174.308 263.24V249.968H177.332V268H174.644L165.264 254.756V268H162.212ZM192.801 268.28C190.467 268.28 188.591 267.981 187.173 267.384V264.696C187.975 264.995 188.834 265.237 189.749 265.424C190.682 265.611 191.606 265.704 192.521 265.704C193.958 265.704 195.031 265.536 195.741 265.2C196.469 264.864 196.833 264.192 196.833 263.184C196.833 262.568 196.683 262.073 196.385 261.7C196.086 261.327 195.591 261.009 194.901 260.748C194.21 260.468 193.258 260.179 192.045 259.88C190.103 259.376 188.741 258.741 187.957 257.976C187.173 257.192 186.781 256.119 186.781 254.756C186.781 253.169 187.359 251.928 188.517 251.032C189.674 250.136 191.401 249.688 193.697 249.688C194.742 249.688 195.722 249.763 196.637 249.912C197.57 250.061 198.298 250.229 198.821 250.416V253.104C197.402 252.563 195.834 252.292 194.117 252.292C192.773 252.292 191.727 252.469 190.981 252.824C190.234 253.179 189.861 253.823 189.861 254.756C189.861 255.297 189.991 255.736 190.253 256.072C190.514 256.408 190.962 256.697 191.597 256.94C192.25 257.183 193.146 257.453 194.285 257.752C195.759 258.125 196.898 258.573 197.701 259.096C198.522 259.6 199.091 260.197 199.409 260.888C199.745 261.56 199.913 262.325 199.913 263.184C199.913 264.771 199.325 266.021 198.149 266.936C196.973 267.832 195.19 268.28 192.801 268.28ZM210.852 268.28C207.996 268.28 205.859 267.533 204.44 266.04C203.021 264.528 202.312 262.195 202.312 259.04C202.312 255.755 203.021 253.375 204.44 251.9C205.859 250.425 207.996 249.688 210.852 249.688C213.727 249.688 215.864 250.425 217.264 251.9C218.683 253.375 219.392 255.755 219.392 259.04C219.392 262.195 218.683 264.528 217.264 266.04C215.864 267.533 213.727 268.28 210.852 268.28ZM210.852 265.704C212.737 265.704 214.119 265.191 214.996 264.164C215.892 263.119 216.34 261.411 216.34 259.04C216.34 256.539 215.892 254.793 214.996 253.804C214.119 252.796 212.737 252.292 210.852 252.292C208.985 252.292 207.604 252.796 206.708 253.804C205.831 254.793 205.392 256.539 205.392 259.04C205.392 261.411 205.831 263.119 206.708 264.164C207.604 265.191 208.985 265.704 210.852 265.704ZM230.068 268.28C227.585 268.28 225.653 267.683 224.272 266.488C222.909 265.293 222.228 263.567 222.228 261.308V249.968H225.28V261.196C225.28 262.708 225.691 263.837 226.512 264.584C227.352 265.331 228.537 265.704 230.068 265.704C231.58 265.704 232.747 265.331 233.568 264.584C234.408 263.837 234.828 262.708 234.828 261.196V249.968H237.852V261.308C237.852 263.567 237.171 265.293 235.808 266.488C234.445 267.683 232.532 268.28 230.068 268.28ZM241.235 268V249.968H243.923L253.331 263.24V249.968H256.355V268H253.667L244.287 254.756V268H241.235ZM259.911 268V249.968H267.219C269.888 249.968 271.867 250.677 273.155 252.096C274.443 253.496 275.087 255.829 275.087 259.096C275.087 262.176 274.452 264.435 273.183 265.872C271.914 267.291 269.926 268 267.219 268H259.911ZM262.963 265.648H266.743C267.919 265.648 268.899 265.48 269.683 265.144C270.467 264.789 271.055 264.136 271.447 263.184C271.839 262.232 272.035 260.869 272.035 259.096C272.035 257.323 271.858 255.951 271.503 254.98C271.148 254.009 270.579 253.328 269.795 252.936C269.03 252.544 268.012 252.348 266.743 252.348H262.963V265.648Z" fill="white"/>
<path d="M206.321 200.888L190.529 173.181L195.251 137.462C195.755 133.648 194.639 130.513 191.838 127.876L170.525 107.809C169.52 106.863 167.988 106.817 166.932 107.655V85.25C166.932 80.701 163.231 77 158.682 77H104.682C100.133 77 96.4321 80.701 96.4321 85.25V100.251C95.3203 99.7679 94.0946 99.4999 92.8071 99.4999C87.7756 99.4999 83.6821 103.593 83.6821 108.625V112.125C83.6821 114.603 84.6751 116.854 86.2841 118.5C84.6751 120.146 83.6821 122.397 83.6821 124.875V128.375C83.6821 130.853 84.6751 133.104 86.2841 134.75C84.6751 136.396 83.6821 138.647 83.6821 141.125V144.625C83.6821 147.103 84.6751 149.354 86.2841 151C84.6751 152.646 83.6821 154.896 83.6821 157.375V160.875C83.6821 165.906 87.7756 170 92.8071 170C94.0946 170 95.3203 169.732 96.4321 169.248V184.25C96.4321 188.799 100.133 192.5 104.682 192.5H130.084L136.417 203.611C136.924 204.501 137.853 205 138.808 205C139.27 205 139.738 204.883 140.168 204.639C141.487 203.887 141.947 202.207 141.195 200.888L136.415 192.5H158.682C163.231 192.5 166.932 188.799 166.932 184.25V151.301C168.792 148.364 171.352 146.325 174.939 144.913C175.756 144.591 176.371 143.899 176.592 143.049L177.842 138.263C178.089 137.319 177.817 136.315 177.127 135.624L170.584 129.077C168.27 126.764 166.996 123.688 166.996 120.416C166.996 118.05 167.662 115.786 168.906 113.839L188.068 131.88C189.586 133.31 190.072 134.673 189.798 136.74L184.955 173.378C184.877 173.973 184.995 174.578 185.292 175.1L201.542 203.611C202.049 204.501 202.978 205 203.934 205C204.396 205 204.864 204.883 205.293 204.638C206.613 203.887 207.073 202.207 206.321 200.888ZM92.8071 148.25C92.8006 148.25 92.7941 148.25 92.7876 148.25C90.7979 148.239 89.1821 146.617 89.1821 144.625V141.125C89.1821 139.133 90.7979 137.51 92.7876 137.5H92.8071C92.8071 137.5 92.8201 137.5 92.8266 137.5C94.8163 137.51 96.4321 139.133 96.4321 141.125V144.625C96.4321 146.617 94.8163 148.239 92.8266 148.25C92.8201 148.25 92.8136 148.25 92.8071 148.25ZM89.1821 128.375V124.875C89.1821 122.883 90.7979 121.26 92.7876 121.25H92.8071C92.8071 121.25 92.8201 121.25 92.8266 121.25C94.8163 121.26 96.4321 122.883 96.4321 124.875V128.375C96.4321 130.367 94.8163 131.99 92.8266 132C92.8201 132 92.8136 132 92.8071 132C92.8006 132 92.7941 132 92.7876 132C90.7979 131.989 89.1821 130.367 89.1821 128.375ZM89.1821 108.625C89.1821 106.626 90.8084 105 92.8071 105C94.8058 105 96.4321 106.626 96.4321 108.625V112.125C96.4321 114.117 94.8163 115.74 92.8266 115.75C92.8201 115.75 92.8136 115.75 92.8071 115.75C92.8006 115.75 92.7941 115.75 92.7876 115.75C90.7979 115.739 89.1821 114.117 89.1821 112.125V108.625ZM92.8071 164.5C90.8084 164.5 89.1821 162.873 89.1821 160.875V157.375C89.1821 155.382 90.7979 153.76 92.7876 153.75H92.8071C92.8071 153.75 92.8201 153.75 92.8266 153.75C94.8163 153.76 96.4321 155.382 96.4321 157.375V160.875C96.4321 162.873 94.8058 164.5 92.8071 164.5ZM161.432 184.25C161.432 185.766 160.198 187 158.682 187H104.682C103.166 187 101.932 185.766 101.932 184.25V85.25C101.932 83.7337 103.166 82.5 104.682 82.5H158.682C160.198 82.5 161.432 83.7337 161.432 85.25V184.25ZM172.123 138.398L171.613 140.352C169.879 141.142 168.322 142.081 166.932 143.18V133.204L172.123 138.398Z" fill="white"/>
<path d="M126.182 93.5002H137.182C138.701 93.5002 139.932 92.269 139.932 90.7502C139.932 89.2315 138.701 88.0002 137.182 88.0002H126.182C124.663 88.0002 123.432 89.2315 123.432 90.7502C123.432 92.269 124.663 93.5002 126.182 93.5002Z" fill="white"/>
<path d="M132.927 176H130.427C128.908 176 127.677 177.231 127.677 178.75C127.677 180.268 128.908 181.5 130.427 181.5H132.927C134.446 181.5 135.677 180.268 135.677 178.75C135.677 177.231 134.446 176 132.927 176Z" fill="white"/>
<path d="M110.182 119.75C108.663 119.75 107.432 118.519 107.432 117V109.75C107.432 108.231 108.663 107 110.182 107H117.432C118.951 107 120.182 108.231 120.182 109.75C120.182 111.269 118.951 112.5 117.432 112.5H112.932V117C112.932 118.519 111.701 119.75 110.182 119.75Z" fill="#33CCCC"/>
<path d="M153.182 162.5H145.932C144.413 162.5 143.182 161.268 143.182 159.75C143.182 158.231 144.413 157 145.932 157H150.432V152.5C150.432 150.981 151.663 149.75 153.182 149.75C154.701 149.75 155.932 150.981 155.932 152.5V159.75C155.932 161.268 154.701 162.5 153.182 162.5Z" fill="#33CCCC"/>
<path d="M153.182 119.75C151.663 119.75 150.432 118.519 150.432 117V112.5H145.932C144.413 112.5 143.182 111.269 143.182 109.75C143.182 108.231 144.413 107 145.932 107H153.182C154.701 107 155.932 108.231 155.932 109.75V117C155.932 118.519 154.701 119.75 153.182 119.75Z" fill="#33CCCC"/>
<path d="M117.432 162.5H110.182C108.663 162.5 107.432 161.268 107.432 159.75V152.5C107.432 150.981 108.663 149.75 110.182 149.75C111.701 149.75 112.932 150.981 112.932 152.5V157H117.432C118.951 157 120.182 158.231 120.182 159.75C120.182 161.268 118.951 162.5 117.432 162.5Z" fill="#33CCCC"/>
<path fill-rule="evenodd" clip-rule="evenodd" d="M169.158 61.6957C167.68 61.1835 166.897 59.5699 167.41 58.0919C167.922 56.6139 169.535 55.8308 171.013 56.3434C175.581 57.9265 179.395 60.9112 182.044 64.9748C184.693 69.0383 185.885 73.7327 185.49 78.5506C185.362 80.1178 183.984 81.2711 182.436 81.1422C180.877 81.0144 179.716 79.6471 179.844 78.0881C180.135 74.5342 179.255 71.0694 177.299 68.0682C175.342 65.0671 172.527 62.8634 169.158 61.6957ZM189.22 3.90349C197.129 6.65006 204.483 10.6287 211.079 15.7294C217.903 21.0058 223.773 27.3789 228.527 34.6715C233.281 41.9641 236.743 49.9071 238.817 58.2797C240.822 66.3731 241.495 74.7076 240.816 83.0518C240.689 84.6192 239.312 85.7733 237.764 85.6453C236.205 85.5185 235.044 84.1519 235.17 82.5927C235.799 74.8609 235.176 67.139 233.319 59.6418C231.397 51.8857 228.189 44.5255 223.782 37.765C219.375 31.0045 213.935 25.0983 207.614 20.2105C201.504 15.4856 194.69 11.7995 187.362 9.25465C185.884 8.74131 185.103 7.12747 185.616 5.64975C186.129 4.1721 187.743 3.39046 189.22 3.90349ZM183.151 21.3837C181.674 20.8709 180.06 21.6527 179.547 23.1305C179.034 24.6082 179.816 26.222 181.294 26.7351C192.471 30.6153 201.806 37.9219 208.287 47.8645C214.769 57.8071 217.687 69.2962 216.727 81.0894C216.6 82.6485 217.761 84.0155 219.32 84.1423C220.867 84.2705 222.245 83.1165 222.373 81.5492C223.436 68.4931 220.206 55.7755 213.033 44.771C205.859 33.7666 195.526 25.6795 183.151 21.3837ZM175.226 44.2159C173.748 43.7039 172.965 42.0904 173.477 40.6124C173.99 39.1342 175.603 38.3514 177.081 38.8633C185.551 41.798 192.625 47.3333 197.538 54.8706C202.452 62.4079 204.661 71.1141 203.929 80.0479C203.8 81.6151 202.422 82.7682 200.874 82.6392C199.315 82.5114 198.155 81.1439 198.283 79.5849C198.912 71.9152 197.013 64.4389 192.793 57.9643C188.572 51.4896 182.498 46.7356 175.226 44.2159Z" fill="white"/>
</svg>
