<svg width="277" height="200" viewBox="0 0 277 200" fill="none" xmlns="http://www.w3.org/2000/svg">
<path d="M206.321 200.888L190.529 173.181L195.251 137.462C195.755 133.648 194.639 130.513 191.838 127.876L170.525 107.809C169.52 106.863 167.988 106.817 166.932 107.655V85.25C166.932 80.701 163.231 77 158.682 77H104.682C100.133 77 96.4321 80.701 96.4321 85.25V100.251C95.3203 99.7679 94.0946 99.4999 92.8071 99.4999C87.7756 99.4999 83.6821 103.593 83.6821 108.625V112.125C83.6821 114.603 84.6751 116.854 86.2841 118.5C84.6751 120.146 83.6821 122.397 83.6821 124.875V128.375C83.6821 130.853 84.6751 133.104 86.2841 134.75C84.6751 136.396 83.6821 138.647 83.6821 141.125V144.625C83.6821 147.103 84.6751 149.354 86.2841 151C84.6751 152.646 83.6821 154.896 83.6821 157.375V160.875C83.6821 165.906 87.7756 170 92.8071 170C94.0946 170 95.3203 169.732 96.4321 169.248V184.25C96.4321 188.799 100.133 192.5 104.682 192.5H130.084L136.417 203.611C136.924 204.501 137.853 205 138.808 205C139.27 205 139.738 204.883 140.168 204.639C141.487 203.887 141.947 202.207 141.195 200.888L136.415 192.5H158.682C163.231 192.5 166.932 188.799 166.932 184.25V151.301C168.792 148.364 171.352 146.325 174.939 144.913C175.756 144.591 176.371 143.899 176.592 143.049L177.842 138.263C178.089 137.319 177.817 136.315 177.127 135.624L170.584 129.077C168.27 126.764 166.996 123.688 166.996 120.416C166.996 118.05 167.662 115.786 168.906 113.839L188.068 131.88C189.586 133.31 190.072 134.673 189.798 136.74L184.955 173.378C184.877 173.973 184.995 174.578 185.292 175.1L201.542 203.611C202.049 204.501 202.978 205 203.934 205C204.396 205 204.864 204.883 205.293 204.638C206.613 203.887 207.073 202.207 206.321 200.888ZM92.8071 148.25C92.8006 148.25 92.7941 148.25 92.7876 148.25C90.7979 148.239 89.1821 146.617 89.1821 144.625V141.125C89.1821 139.133 90.7979 137.51 92.7876 137.5H92.8071C92.8071 137.5 92.8201 137.5 92.8266 137.5C94.8163 137.51 96.4321 139.133 96.4321 141.125V144.625C96.4321 146.617 94.8163 148.239 92.8266 148.25C92.8201 148.25 92.8136 148.25 92.8071 148.25ZM89.1821 128.375V124.875C89.1821 122.883 90.7979 121.26 92.7876 121.25H92.8071C92.8071 121.25 92.8201 121.25 92.8266 121.25C94.8163 121.26 96.4321 122.883 96.4321 124.875V128.375C96.4321 130.367 94.8163 131.99 92.8266 132C92.8201 132 92.8136 132 92.8071 132C92.8006 132 92.7941 132 92.7876 132C90.7979 131.989 89.1821 130.367 89.1821 128.375ZM89.1821 108.625C89.1821 106.626 90.8084 105 92.8071 105C94.8058 105 96.4321 106.626 96.4321 108.625V112.125C96.4321 114.117 94.8163 115.74 92.8266 115.75C92.8201 115.75 92.8136 115.75 92.8071 115.75C92.8006 115.75 92.7941 115.75 92.7876 115.75C90.7979 115.739 89.1821 114.117 89.1821 112.125V108.625ZM92.8071 164.5C90.8084 164.5 89.1821 162.873 89.1821 160.875V157.375C89.1821 155.382 90.7979 153.76 92.7876 153.75H92.8071C92.8071 153.75 92.8201 153.75 92.8266 153.75C94.8163 153.76 96.4321 155.382 96.4321 157.375V160.875C96.4321 162.873 94.8058 164.5 92.8071 164.5ZM161.432 184.25C161.432 185.766 160.198 187 158.682 187H104.682C103.166 187 101.932 185.766 101.932 184.25V85.25C101.932 83.7337 103.166 82.5 104.682 82.5H158.682C160.198 82.5 161.432 83.7337 161.432 85.25V184.25ZM172.123 138.398L171.613 140.352C169.879 141.142 168.322 142.081 166.932 143.18V133.204L172.123 138.398Z" fill="white"/>
<path d="M126.182 93.5002H137.182C138.701 93.5002 139.932 92.269 139.932 90.7502C139.932 89.2315 138.701 88.0002 137.182 88.0002H126.182C124.663 88.0002 123.432 89.2315 123.432 90.7502C123.432 92.269 124.663 93.5002 126.182 93.5002Z" fill="white"/>
<path d="M132.927 176H130.427C128.908 176 127.677 177.231 127.677 178.75C127.677 180.268 128.908 181.5 130.427 181.5H132.927C134.446 181.5 135.677 180.268 135.677 178.75C135.677 177.231 134.446 176 132.927 176Z" fill="white"/>
<path d="M110.182 119.75C108.663 119.75 107.432 118.519 107.432 117V109.75C107.432 108.231 108.663 107 110.182 107H117.432C118.951 107 120.182 108.231 120.182 109.75C120.182 111.269 118.951 112.5 117.432 112.5H112.932V117C112.932 118.519 111.701 119.75 110.182 119.75Z" fill="#9BE938"/>
<path d="M153.182 162.5H145.932C144.413 162.5 143.182 161.268 143.182 159.75C143.182 158.231 144.413 157 145.932 157H150.432V152.5C150.432 150.981 151.663 149.75 153.182 149.75C154.701 149.75 155.932 150.981 155.932 152.5V159.75C155.932 161.268 154.701 162.5 153.182 162.5Z" fill="#9BE938"/>
<path d="M153.182 119.75C151.663 119.75 150.432 118.519 150.432 117V112.5H145.932C144.413 112.5 143.182 111.269 143.182 109.75C143.182 108.231 144.413 107 145.932 107H153.182C154.701 107 155.932 108.231 155.932 109.75V117C155.932 118.519 154.701 119.75 153.182 119.75Z" fill="#9BE938"/>
<path d="M117.432 162.5H110.182C108.663 162.5 107.432 161.268 107.432 159.75V152.5C107.432 150.981 108.663 149.75 110.182 149.75C111.701 149.75 112.932 150.981 112.932 152.5V157H117.432C118.951 157 120.182 158.231 120.182 159.75C120.182 161.268 118.951 162.5 117.432 162.5Z" fill="#9BE938"/>
</svg>
